<svg xmlns="http://www.w3.org/2000/svg" fill-rule="evenodd" stroke-linecap="round" stroke-linejoin="round" stroke-miterlimit="1.5" clip-rule="evenodd" viewBox="0 0 282 282">
    <g transform="matrix(1,0,0,1,-61.5,-54.5)">
        <g id="keyshapes">
            <path id="R3C3_keyshape" fill="#fff" stroke="#b4b4b4" stroke-width="1.501" d="M291.11 284.11h51.243v51.243H291.11z"/>
            <path id="R3C2_keyshape" fill="#fff" stroke="#b4b4b4" stroke-width="1.501" d="M214.824 284.11h51.242v51.243h-51.242z"/>
            <path id="R3C1_keyshape" fill="#fff" stroke="#b4b4b4" stroke-width="1.501" d="M138.537 284.11h51.242v51.243h-51.242z"/>
            <path id="R3C0_keyshape" fill="#fff" stroke="#b4b4b4" stroke-width="1.501" d="M62.25 284.11h51.242v51.243H62.25z"/>
            <path id="R2C3_keyshape" fill="#fff" stroke="#b4b4b4" stroke-width="1.501" d="M291.11 207.824h51.243v51.242H291.11z"/>
            <path id="R2C2_keyshape" fill="#fff" stroke="#b4b4b4" stroke-width="1.501" d="M214.824 207.824h51.242v51.242h-51.242z"/>
            <path id="R2C1_keyshape" fill="#fff" stroke="#b4b4b4" stroke-width="1.501" d="M138.537 207.824h51.242v51.242h-51.242z"/>
            <path id="R2C0_keyshape" fill="#fff" stroke="#b4b4b4" stroke-width="1.501" d="M62.25 207.824h51.242v51.242H62.25z"/>
            <path id="R1C3_keyshape" fill="#fff" stroke="#b4b4b4" stroke-width="1.501" d="M291.11 131.537h51.243v51.242H291.11z"/>
            <path id="R1C2_keyshape" fill="#fff" stroke="#b4b4b4" stroke-width="1.501" d="M214.824 131.537h51.242v51.242h-51.242z"/>
            <path id="R1C1_keyshape" fill="#fff" stroke="#b4b4b4" stroke-width="1.501" d="M138.537 131.537h51.242v51.242h-51.242z"/>
            <path id="R1C0_keyshape" fill="#fff" stroke="#b4b4b4" stroke-width="1.501" d="M62.25 131.537h51.242v51.242H62.25z"/>
            <path id="R0C3_keyshape" fill="#fff" stroke="#b4b4b4" stroke-width="1.501" d="M291.11 55.25h51.243v51.242H291.11V55.25z"/>
            <path id="R0C2_keyshape" fill="#fff" stroke="#b4b4b4" stroke-width="1.501" d="M214.824 55.25h51.242v51.242h-51.242V55.25z"/>
            <path id="R0C1_keyshape" fill="#fff" stroke="#b4b4b4" stroke-width="1.501" d="M138.537 55.25h51.242v51.242h-51.242V55.25z"/>
            <path id="R0C0_keyshape" fill="#fff" stroke="#b4b4b4" stroke-width="1.501" d="M62.25 55.25h51.242v51.242H62.25V55.25z"/>
        </g>
        <g id="labels" pointer-events="none">
            <g transform="matrix(0.9,3.93435e-16,-4.3715e-16,1,227.132,134.852)">
                <text id="R3C3_t_secondary" x="79" y="177.877" font-family="'OpenSans-Bold','Open Sans',sans-serif" font-size="13" font-weight="700">
                    Prim
                </text>
            </g>
            <g transform="matrix(1,4.3715e-16,-4.3715e-16,1,219.232,150.285)">
                <text id="R3C3_t_primary" x="79" y="175.01" font-family="'SourceCodePro-Bold','Source Code Pro',monospace" font-size="10" font-weight="700">
                    SECOND
                </text>
            </g>
            <g transform="matrix(1,4.3715e-16,-4.3715e-16,1,219.232,123.7)">
                <text id="R3C3_t_extra" x="79" y="175.01" font-family="'SourceCodePro-Bold','Source Code Pro',monospace" font-size="10" font-weight="700">
                    EXTRA
                </text>
            </g>
            <g transform="matrix(1,4.3715e-16,-4.3715e-16,1,142.945,150.285)">
                <text id="R3C2_t_secondary" x="79" y="175.01" font-family="'SourceCodePro-Bold','Source Code Pro',monospace" font-size="10" font-weight="700">
                    SECOND
                </text>
            </g>
            <g transform="matrix(0.9,3.93435e-16,-4.3715e-16,1,150.845,134.852)">
                <text id="R3C2_t_primary" x="79" y="177.877" font-family="'OpenSans-Bold','Open Sans',sans-serif" font-size="13" font-weight="700">
                    Prim
                </text>
            </g>
            <g transform="matrix(1,4.3715e-16,-4.3715e-16,1,142.945,123.7)">
                <text id="R3C2_t_extra" x="79" y="175.01" font-family="'SourceCodePro-Bold','Source Code Pro',monospace" font-size="10" font-weight="700">
                    EXTRA
                </text>
            </g>
            <g transform="matrix(0.9,3.93435e-16,-4.3715e-16,1,74.5581,134.852)">
                <text id="R3C1_t_secondary" x="79" y="177.877" font-family="'OpenSans-Bold','Open Sans',sans-serif" font-size="13" font-weight="700">
                    Prim
                </text>
            </g>
            <g transform="matrix(1,4.3715e-16,-4.3715e-16,1,66.6581,150.285)">
                <text id="R3C1_t_primary" x="79" y="175.01" font-family="'SourceCodePro-Bold','Source Code Pro',monospace" font-size="10" font-weight="700">
                    SECOND
                </text>
            </g>
            <g transform="matrix(1,4.3715e-16,-4.3715e-16,1,66.6581,123.7)">
                <text id="R3C1_t_extra" x="79" y="175.01" font-family="'SourceCodePro-Bold','Source Code Pro',monospace" font-size="10" font-weight="700">
                    EXTRA
                </text>
            </g>
            <g transform="matrix(1,4.3715e-16,-4.3715e-16,1,-9.62882,151.285)">
                <text id="R3C0_t_secondary" x="79" y="175.01" font-family="'SourceCodePro-Bold','Source Code Pro',monospace" font-size="10" font-weight="700">
                    SECOND
                </text>
            </g>
            <g transform="matrix(0.9,3.93435e-16,-4.3715e-16,1,-1.72882,135.852)">
                <text id="R3C0_t_primary" x="79" y="177.877" font-family="'OpenSans-Bold','Open Sans',sans-serif" font-size="13" font-weight="700">
                    Prim
                </text>
            </g>
            <g transform="matrix(1,4.3715e-16,-4.3715e-16,1,-9.62882,124.7)">
                <text id="R3C0_t_extra" x="79" y="175.01" font-family="'SourceCodePro-Bold','Source Code Pro',monospace" font-size="10" font-weight="700">
                    EXTRA
                </text>
            </g>
            <g transform="matrix(0.9,3.93435e-16,-4.3715e-16,1,227.132,58.5649)">
                <text id="R2C3_t_secondary" x="79" y="177.877" font-family="'OpenSans-Bold','Open Sans',sans-serif" font-size="13" font-weight="700">
                    Prim
                </text>
            </g>
            <g transform="matrix(1,4.3715e-16,-4.3715e-16,1,219.232,73.9979)">
                <text id="R2C3_t_primary" x="79" y="175.01" font-family="'SourceCodePro-Bold','Source Code Pro',monospace" font-size="10" font-weight="700">
                    SECOND
                </text>
            </g>
            <g transform="matrix(1,4.3715e-16,-4.3715e-16,1,219.232,47.4133)">
                <text id="R2C3_t_extra" x="79" y="175.01" font-family="'SourceCodePro-Bold','Source Code Pro',monospace" font-size="10" font-weight="700">
                    EXTRA
                </text>
            </g>
            <g transform="matrix(1,4.3715e-16,-4.3715e-16,1,142.945,73.9979)">
                <text id="R2C2_t_secondary" x="79" y="175.01" font-family="'SourceCodePro-Bold','Source Code Pro',monospace" font-size="10" font-weight="700">
                    SECOND
                </text>
            </g>
            <g transform="matrix(0.9,3.93435e-16,-4.3715e-16,1,150.845,58.5649)">
                <text id="R2C2_t_primary" x="79" y="177.877" font-family="'OpenSans-Bold','Open Sans',sans-serif" font-size="13" font-weight="700">
                    Prim
                </text>
            </g>
            <g transform="matrix(1,4.3715e-16,-4.3715e-16,1,142.945,47.4133)">
                <text id="R2C2_t_extra" x="79" y="175.01" font-family="'SourceCodePro-Bold','Source Code Pro',monospace" font-size="10" font-weight="700">
                    EXTRA
                </text>
            </g>
            <g transform="matrix(0.9,3.93435e-16,-4.3715e-16,1,74.5581,58.5649)">
                <text id="R2C1_t_secondary" x="79" y="177.877" font-family="'OpenSans-Bold','Open Sans',sans-serif" font-size="13" font-weight="700">
                    Prim
                </text>
            </g>
            <g transform="matrix(1,4.3715e-16,-4.3715e-16,1,66.6581,73.9979)">
                <text id="R2C1_t_primary" x="79" y="175.01" font-family="'SourceCodePro-Bold','Source Code Pro',monospace" font-size="10" font-weight="700">
                    SECOND
                </text>
            </g>
            <g transform="matrix(1,4.3715e-16,-4.3715e-16,1,66.6581,47.4133)">
                <text id="R2C1_t_extra" x="79" y="175.01" font-family="'SourceCodePro-Bold','Source Code Pro',monospace" font-size="10" font-weight="700">
                    EXTRA
                </text>
            </g>
            <g transform="matrix(1,4.3715e-16,-4.3715e-16,1,-9.62882,74.9979)">
                <text id="R2C0_t_secondary" x="79" y="175.01" font-family="'SourceCodePro-Bold','Source Code Pro',monospace" font-size="10" font-weight="700">
                    SECOND
                </text>
            </g>
            <g transform="matrix(0.9,3.93435e-16,-4.3715e-16,1,-1.72882,59.5649)">
                <text id="R2C0_t_primary" x="79" y="177.877" font-family="'OpenSans-Bold','Open Sans',sans-serif" font-size="13" font-weight="700">
                    Prim
                </text>
            </g>
            <g transform="matrix(1,4.3715e-16,-4.3715e-16,1,-9.62882,48.4133)">
                <text id="R2C0_t_extra" x="79" y="175.01" font-family="'SourceCodePro-Bold','Source Code Pro',monospace" font-size="10" font-weight="700">
                    EXTRA
                </text>
            </g>
            <g transform="matrix(0.9,3.93435e-16,-4.3715e-16,1,227.132,-17.722)">
                <text id="R1C3_t_secondary" x="79" y="177.877" font-family="'OpenSans-Bold','Open Sans',sans-serif" font-size="13" font-weight="700">
                    Prim
                </text>
            </g>
            <g transform="matrix(1,4.3715e-16,-4.3715e-16,1,219.232,-2.28902)">
                <text id="R1C3_t_primary" x="79" y="175.01" font-family="'SourceCodePro-Bold','Source Code Pro',monospace" font-size="10" font-weight="700">
                    SECOND
                </text>
            </g>
            <g transform="matrix(1,4.3715e-16,-4.3715e-16,1,219.232,-28.8735)">
                <text id="R1C3_t_extra" x="79" y="175.01" font-family="'SourceCodePro-Bold','Source Code Pro',monospace" font-size="10" font-weight="700">
                    EXTRA
                </text>
            </g>
            <g transform="matrix(1,4.3715e-16,-4.3715e-16,1,142.945,-2.28902)">
                <text id="R1C2_t_secondary" x="79" y="175.01" font-family="'SourceCodePro-Bold','Source Code Pro',monospace" font-size="10" font-weight="700">
                    SECOND
                </text>
            </g>
            <g transform="matrix(0.9,3.93435e-16,-4.3715e-16,1,150.845,-17.722)">
                <text id="R1C2_t_primary" x="79" y="177.877" font-family="'OpenSans-Bold','Open Sans',sans-serif" font-size="13" font-weight="700">
                    Prim
                </text>
            </g>
            <g transform="matrix(1,4.3715e-16,-4.3715e-16,1,142.945,-28.8735)">
                <text id="R1C2_t_extra" x="79" y="175.01" font-family="'SourceCodePro-Bold','Source Code Pro',monospace" font-size="10" font-weight="700">
                    EXTRA
                </text>
            </g>
            <g transform="matrix(0.9,3.93435e-16,-4.3715e-16,1,74.5581,-17.722)">
                <text id="R1C1_t_secondary" x="79" y="177.877" font-family="'OpenSans-Bold','Open Sans',sans-serif" font-size="13" font-weight="700">
                    Prim
                </text>
            </g>
            <g transform="matrix(1,4.3715e-16,-4.3715e-16,1,66.6581,-2.28902)">
                <text id="R1C1_t_primary" x="79" y="175.01" font-family="'SourceCodePro-Bold','Source Code Pro',monospace" font-size="10" font-weight="700">
                    SECOND
                </text>
            </g>
            <g transform="matrix(1,4.3715e-16,-4.3715e-16,1,66.6581,-28.8735)">
                <text id="R1C1_t_extra" x="79" y="175.01" font-family="'SourceCodePro-Bold','Source Code Pro',monospace" font-size="10" font-weight="700">
                    EXTRA
                </text>
            </g>
            <g transform="matrix(1,4.3715e-16,-4.3715e-16,1,-9.62882,-1.28902)">
                <text id="R1C0_t_secondary" x="79" y="175.01" font-family="'SourceCodePro-Bold','Source Code Pro',monospace" font-size="10" font-weight="700">
                    SECOND
                </text>
            </g>
            <g transform="matrix(0.9,3.93435e-16,-4.3715e-16,1,-1.72882,-16.722)">
                <text id="R1C0_t_primary" x="79" y="177.877" font-family="'OpenSans-Bold','Open Sans',sans-serif" font-size="13" font-weight="700">
                    Prim
                </text>
            </g>
            <g transform="matrix(1,4.3715e-16,-4.3715e-16,1,-9.62882,-27.8735)">
                <text id="R1C0_t_extra" x="79" y="175.01" font-family="'SourceCodePro-Bold','Source Code Pro',monospace" font-size="10" font-weight="700">
                    EXTRA
                </text>
            </g>
            <g transform="matrix(0.9,3.93435e-16,-4.3715e-16,1,227.132,-94.0089)">
                <text id="R0C3_t_secondary" x="79" y="177.877" font-family="'OpenSans-Bold','Open Sans',sans-serif" font-size="13" font-weight="700">
                    Prim
                </text>
            </g>
            <g transform="matrix(1,4.3715e-16,-4.3715e-16,1,219.232,-78.5759)">
                <text id="R0C3_t_primary" x="79" y="175.01" font-family="'SourceCodePro-Bold','Source Code Pro',monospace" font-size="10" font-weight="700">
                    SECOND
                </text>
            </g>
            <g transform="matrix(1,4.3715e-16,-4.3715e-16,1,219.232,-105.16)">
                <text id="R0C3_t_extra" x="79" y="175.01" font-family="'SourceCodePro-Bold','Source Code Pro',monospace" font-size="10" font-weight="700">
                    EXTRA
                </text>
            </g>
            <g transform="matrix(1,4.3715e-16,-4.3715e-16,1,142.945,-78.5759)">
                <text id="R0C2_t_secondary" x="79" y="175.01" font-family="'SourceCodePro-Bold','Source Code Pro',monospace" font-size="10" font-weight="700">
                    SECOND
                </text>
            </g>
            <g transform="matrix(0.9,3.93435e-16,-4.3715e-16,1,150.845,-94.0089)">
                <text id="R0C2_t_primary" x="79" y="177.877" font-family="'OpenSans-Bold','Open Sans',sans-serif" font-size="13" font-weight="700">
                    Prim
                </text>
            </g>
            <g transform="matrix(1,4.3715e-16,-4.3715e-16,1,142.945,-105.16)">
                <text id="R0C2_t_extra" x="79" y="175.01" font-family="'SourceCodePro-Bold','Source Code Pro',monospace" font-size="10" font-weight="700">
                    EXTRA
                </text>
            </g>
            <g transform="matrix(0.9,3.93435e-16,-4.3715e-16,1,74.5581,-94.0089)">
                <text id="R0C1_t_secondary" x="79" y="177.877" font-family="'OpenSans-Bold','Open Sans',sans-serif" font-size="13" font-weight="700">
                    Prim
                </text>
            </g>
            <g transform="matrix(1,4.3715e-16,-4.3715e-16,1,66.6581,-78.5759)">
                <text id="R0C1_t_primary" x="79" y="175.01" font-family="'SourceCodePro-Bold','Source Code Pro',monospace" font-size="10" font-weight="700">
                    SECOND
                </text>
            </g>
            <g transform="matrix(1,4.3715e-16,-4.3715e-16,1,66.6581,-105.16)">
                <text id="R0C1_t_extra" x="79" y="175.01" font-family="'SourceCodePro-Bold','Source Code Pro',monospace" font-size="10" font-weight="700">
                    EXTRA
                </text>
            </g>
            <g transform="matrix(1,4.3715e-16,-4.3715e-16,1,-9.62882,-77.5759)">
                <text id="R0C0_t_secondary" x="79" y="175.01" font-family="'SourceCodePro-Bold','Source Code Pro',monospace" font-size="10" font-weight="700">
                    SECOND
                </text>
            </g>
            <g transform="matrix(0.9,3.93435e-16,-4.3715e-16,1,-1.72882,-93.0089)">
                <text id="R0C0_t_primary" x="79" y="177.877" font-family="'OpenSans-Bold','Open Sans',sans-serif" font-size="13" font-weight="700">
                    Prim
                </text>
            </g>
            <g transform="matrix(1,4.3715e-16,-4.3715e-16,1,-9.62882,-104.16)">
                <text id="R0C0_t_extra" x="79" y="175.01" font-family="'SourceCodePro-Bold','Source Code Pro',monospace" font-size="10" font-weight="700">
                    EXTRA
                </text>
            </g>
        </g>
    </g>
</svg>
