<svg xmlns="http://www.w3.org/2000/svg" fill-rule="evenodd" stroke-linejoin="round" stroke-miterlimit="1.5" clip-rule="evenodd" viewBox="0 0 897 545">
    <path fill="#fff" stroke="#000" d="M158.099 298.58c1.728-6.45 7.617-10.969 14.295-10.969 1.293 0 2.581.169 3.83.504l198.263 53.125c9.279 2.486 18.816-3.02 21.303-12.299l7.151-26.689c2.102-7.841 10.283-12.564 18.125-10.464l123.105 32.986c7.842 2.101 12.566 10.283 10.465 18.125l-16.434 61.332a65.152 65.152 0 0 1-16.466 28.803 80.845 80.845 0 0 1-27.956 18.518l-57.561 22.73a64.056 64.056 0 0 1-40.07 2.299L244.643 436.04a64.043 64.043 0 0 1-32.46-20.647l-48.203-57.329a51.582 51.582 0 0 1-10.189-19.283 44.72 44.72 0 0 1-.133-23.629l4.441-16.572z"/>
    <path fill="#fff" stroke="#000" d="M443.189 506.064c.368-1.372.554-2.786.554-4.206 0-7.328-4.961-13.792-12.04-15.688l-223.294-59.831a16.263 16.263 0 0 0-4.204-.554c-7.329 0-13.793 4.961-15.69 12.04l-36.627 136.691c-2.306 8.607 2.879 17.587 11.486 19.894l223.295 59.831c1.372.368 2.786.554 4.207.554 7.328 0 13.791-4.96 15.687-12.039l36.626-136.692z"/>
    <path fill="#fff" stroke="#000" d="M207.214 151.656a16.889 16.889 0 0 0-12.047 11.96l-28.033 104.618c-2.411 9 2.93 18.25 11.929 20.661L440.324 358.9c9 2.412 18.25-2.929 20.661-11.928l6.68-24.929c1.97-7.352 8.683-12.504 16.294-12.504 1.475 0 2.943.193 4.367.575l47.755 12.796c8.939 2.395 18.266-2.99 20.661-11.929l32.707-122.061c2.411-8.999-2.93-18.25-11.929-20.661l-209.569-56.154a16.868 16.868 0 0 0-8.614-.031l-152.123 39.582z"/>
    <path id="R0C3_F" fill="#fff" stroke="#000" stroke-linecap="round" d="M439.924 156.076c1.02-3.808-1.274-7.78-5.081-8.801l-30.079-8.06c-3.808-1.02-7.78 1.274-8.801 5.081l-8.06 30.08a7.177 7.177 0 0 0-.245 1.861 7.202 7.202 0 0 0 5.327 6.94l30.079 8.059c3.808 1.02 7.78-1.274 8.801-5.081l8.059-30.079z"/>
    <path id="R1C3_F" fill="#fff" stroke="#000" stroke-linecap="round" d="M426.009 208.007a7.17 7.17 0 0 0 .245-1.86 7.201 7.201 0 0 0-5.326-6.94l-30.079-8.06c-3.808-1.02-7.78 1.274-8.801 5.081l-8.06 30.079c-1.02 3.808 1.274 7.781 5.082 8.801l30.079 8.06c3.808 1.02 7.78-1.274 8.801-5.081l8.059-30.08z"/>
    <path id="R2C3_F" fill="#fff" stroke="#000" stroke-linecap="round" d="M412.094 259.939a7.18 7.18 0 0 0 .246-1.862 7.201 7.201 0 0 0-5.327-6.939l-30.079-8.06c-3.808-1.02-7.781 1.274-8.801 5.082l-8.06 30.079a7.177 7.177 0 0 0-.245 1.861 7.202 7.202 0 0 0 5.327 6.94l30.079 8.059a7.18 7.18 0 0 0 1.862.246 7.201 7.201 0 0 0 6.939-5.327l8.059-30.079z"/>
    <path id="R0C4_F" fill="#fff" stroke="#000" stroke-linecap="round" d="M489.18 195.8c1.02-3.808-1.274-7.781-5.082-8.801l-30.079-8.059c-3.808-1.02-7.78 1.274-8.801 5.081l-8.059 30.079a7.18 7.18 0 0 0-.246 1.862 7.201 7.201 0 0 0 5.327 6.939l30.079 8.059a7.18 7.18 0 0 0 1.862.246 7.201 7.201 0 0 0 6.939-5.327l8.06-30.079z"/>
    <path id="R1C4_F" fill="#fff" stroke="#000" stroke-linecap="round" d="M475.265 247.732c1.02-3.808-1.274-7.781-5.082-8.801l-30.079-8.06c-3.808-1.02-7.78 1.274-8.801 5.081l-8.059 30.079a7.187 7.187 0 0 0-.246 1.863 7.2 7.2 0 0 0 5.327 6.938l30.079 8.06c3.808 1.02 7.78-1.274 8.801-5.081l8.06-30.079z"/>
    <path id="R2C4_F" fill="#fff" stroke="#000" stroke-linecap="round" d="M461.35 299.663c1.02-3.808-1.274-7.781-5.082-8.801l-30.079-8.059c-3.808-1.02-7.78 1.274-8.801 5.081l-8.059 30.079a7.18 7.18 0 0 0-.246 1.862 7.201 7.201 0 0 0 5.327 6.939l30.079 8.06c3.808 1.02 7.781-1.274 8.801-5.082l8.06-30.079z"/>
    <path id="R0C2_F" fill="#fff" stroke="#000" stroke-linecap="round" d="M377.406 165.85a7.17 7.17 0 0 0 .245-1.86 7.202 7.202 0 0 0-5.326-6.94l-30.079-8.06c-3.808-1.02-7.78 1.274-8.801 5.081l-8.06 30.079c-1.02 3.808 1.274 7.78 5.081 8.801l30.079 8.06c3.808 1.02 7.78-1.274 8.801-5.081l8.06-30.08z"/>
    <path id="R1C2_F" fill="#fff" stroke="#000" stroke-linecap="round" d="M363.491 217.782c1.02-3.808-1.274-7.78-5.081-8.801l-30.079-8.06c-3.808-1.02-7.781 1.274-8.801 5.082l-8.06 30.079c-1.02 3.808 1.274 7.78 5.081 8.801l30.079 8.059a7.187 7.187 0 0 0 1.863.246 7.2 7.2 0 0 0 6.938-5.327l8.06-30.079z"/>
    <path id="R2C2_F" fill="#fff" stroke="#000" stroke-linecap="round" d="M349.576 269.713a7.17 7.17 0 0 0 .245-1.86 7.202 7.202 0 0 0-5.326-6.94l-30.079-8.06c-3.808-1.02-7.78 1.274-8.801 5.081l-8.06 30.079c-1.02 3.808 1.274 7.78 5.081 8.801l30.079 8.06c3.808 1.02 7.78-1.274 8.801-5.081l8.06-30.08z"/>
    <path id="R2C0_F" fill="#fff" stroke="#000" stroke-linecap="round" d="M243.381 218.946c1.02-3.808-1.274-7.781-5.082-8.801l-30.079-8.06c-3.808-1.02-7.781 1.274-8.801 5.082l-8.059 30.079a7.18 7.18 0 0 0-.246 1.862 7.201 7.201 0 0 0 5.327 6.939l30.079 8.059a7.18 7.18 0 0 0 1.862.246 7.201 7.201 0 0 0 6.939-5.327l8.06-30.079z"/>
    <path id="R1C1_F" fill="#fff" stroke="#000" stroke-linecap="round" d="M307.293 203.97c1.02-3.808-1.274-7.78-5.081-8.801l-30.08-8.06a7.17 7.17 0 0 0-1.86-.245 7.201 7.201 0 0 0-6.94 5.326l-8.06 30.08a7.17 7.17 0 0 0-.245 1.86 7.201 7.201 0 0 0 5.326 6.94l30.079 8.06c3.808 1.02 7.78-1.274 8.801-5.081l8.06-30.079z"/>
    <path id="R2C1_F" fill="#fff" stroke="#000" stroke-linecap="round" d="M293.613 255.023a7.17 7.17 0 0 0 .245-1.86 7.202 7.202 0 0 0-5.326-6.94l-30.079-8.06c-3.808-1.02-7.78 1.274-8.801 5.081l-8.06 30.079c-1.02 3.808 1.274 7.78 5.081 8.801l30.079 8.06c3.808 1.02 7.78-1.274 8.801-5.081l8.06-30.08z"/>
    <path id="R0C5_F" fill="#fff" stroke="#000" stroke-linecap="round" d="M543.195 217.759c1.02-3.808-1.274-7.78-5.081-8.801l-30.079-8.06c-3.808-1.02-7.78 1.274-8.801 5.081l-8.06 30.08a7.17 7.17 0 0 0-.245 1.86 7.202 7.202 0 0 0 5.326 6.94l30.08 8.06a7.17 7.17 0 0 0 1.86.245 7.202 7.202 0 0 0 6.94-5.326l8.06-30.079z"/>
    <path id="R1C5_F" fill="#fff" stroke="#000" stroke-linecap="round" d="M529.28 269.69c1.02-3.808-1.274-7.78-5.081-8.801l-30.079-8.059a7.187 7.187 0 0 0-1.863-.246 7.2 7.2 0 0 0-6.938 5.327l-8.06 30.079c-1.02 3.808 1.274 7.78 5.081 8.801l30.079 8.06c3.808 1.02 7.781-1.274 8.801-5.082l8.06-30.079z"/>
    <path id="R4C2_F" fill="#fff" stroke="#000" stroke-linecap="round" d="M463.416 432.868c6.255 1.675 12.78-2.093 14.457-8.347l.253-.944c.267-.997.403-2.024.403-3.057 0-5.325-3.605-10.023-8.75-11.4l-7.016-1.88a5.521 5.521 0 0 0-1.43-.189 5.529 5.529 0 0 0-5.328 4.09l-3.507 13.089a5.521 5.521 0 0 0-.189 1.43 5.529 5.529 0 0 0 4.091 5.328l7.016 1.88z"/>
    <path id="R3C2_F" fill="#fff" stroke="#000" stroke-linecap="round" d="M526.512 378.698a11.82 11.82 0 0 0 3.057.403c5.325 0 10.022-3.605 11.4-8.749l.253-.945c1.675-6.255-2.093-12.78-8.347-14.457l-7.016-1.88c-2.924-.782-5.974.979-6.758 3.902l-3.507 13.088c-.783 2.924.977 5.974 3.901 6.758l7.017 1.88z"/>
    <path id="R4C0_F" fill="#fff" stroke="#000" stroke-linecap="round" d="M418.103 395.273c-6.255-1.675-12.781 2.092-14.457 8.347l-.253.944a11.802 11.802 0 0 0 8.346 14.457l7.017 1.88c.466.125.947.188 1.429.188a5.529 5.529 0 0 0 5.329-4.09l3.507-13.088c.782-2.924-.979-5.974-3.902-6.758l-7.016-1.88z"/>
    <path id="R3C0_F" fill="#fff" stroke="#000" stroke-linecap="round" d="M481.198 341.103a11.814 11.814 0 0 0-3.057-.403c-5.325 0-10.023 3.605-11.4 8.75l-.253.944c-1.674 6.255 2.093 12.78 8.347 14.458l7.016 1.88c2.924.782 5.974-.979 6.758-3.902l3.507-13.088c.125-.466.188-.947.188-1.429a5.531 5.531 0 0 0-4.089-5.33l-7.017-1.88z"/>
    <path id="R4C1_F" fill="#fff" stroke="#000" stroke-linecap="round" d="M459.557 391.414c1.675-6.255-2.092-12.781-8.347-14.457l-.944-.253a11.802 11.802 0 0 0-14.457 8.347l-1.88 7.016a5.521 5.521 0 0 0-.189 1.43 5.529 5.529 0 0 0 4.09 5.328l13.089 3.507c2.924.782 5.974-.979 6.758-3.902l1.88-7.016z"/>
    <path id="R3C1_F" fill="#fff" stroke="#000" stroke-linecap="round" d="M522.653 337.244c.267-.997.403-2.024.403-3.057 0-5.325-3.605-10.023-8.75-11.4l-.944-.253c-6.255-1.674-12.78 2.093-14.458 8.347l-1.88 7.016c-.782 2.924.979 5.974 3.902 6.758l13.088 3.507c.466.125.947.188 1.429.188a5.531 5.531 0 0 0 5.33-4.089l1.88-7.017z"/>
    <path id="R4C3_F" fill="#fff" stroke="#000" stroke-linecap="round" d="M421.962 436.727c-1.675 6.255 2.093 12.78 8.347 14.457l.944.253c.997.267 2.024.403 3.057.403 5.325 0 10.023-3.605 11.4-8.75l1.88-7.016c.125-.466.189-.947.189-1.43a5.529 5.529 0 0 0-4.091-5.328l-13.088-3.507a5.521 5.521 0 0 0-1.43-.189 5.529 5.529 0 0 0-5.328 4.091l-1.88 7.016z"/>
    <path id="R3C3_F" fill="#fff" stroke="#000" stroke-linecap="round" d="M485.058 382.558a11.82 11.82 0 0 0-.403 3.057c0 5.325 3.605 10.022 8.749 11.4l.945.253c6.255 1.675 12.78-2.093 14.457-8.347l1.88-7.016c.782-2.924-.979-5.974-3.902-6.758l-13.088-3.507a5.521 5.521 0 0 0-1.43-.189 5.529 5.529 0 0 0-5.328 4.09l-1.88 7.017z"/>
    <path id="R0C0_F" fill="#fff" stroke="#000" d="M1040.53 298.58c-1.728-6.45-7.617-10.969-14.295-10.969-1.293 0-2.581.169-3.83.504L824.141 341.24c-9.278 2.486-18.816-3.02-21.302-12.299l-7.151-26.689c-2.102-7.841-10.283-12.565-18.125-10.464l-123.105 32.986c-6.45 1.727-10.97 7.616-10.97 14.293 0 1.294.17 2.582.505 3.832l16.434 61.332a65.14 65.14 0 0 0 16.465 28.803h.001a80.831 80.831 0 0 0 27.955 18.518l57.561 22.73a64.06 64.06 0 0 0 40.071 2.299l151.506-40.541a64.044 64.044 0 0 0 32.459-20.647l48.203-57.329a51.582 51.582 0 0 0 10.189-19.283 44.7 44.7 0 0 0 .133-23.629l-4.44-16.572z"/>
    <path id="R0C0_F1" fill="#fff" stroke="#000" d="M755.441 506.064a16.237 16.237 0 0 1-.554-4.207c0-7.328 4.96-13.791 12.039-15.687l223.295-59.831c8.607-2.306 17.587 2.879 19.894 11.486l36.626 136.691c2.306 8.607-2.878 17.587-11.485 19.894l-223.295 59.831c-8.607 2.306-17.587-2.878-19.894-11.485l-36.626-136.692z"/>
    <path id="R0C0_F2" fill="#fff" stroke="#000" d="M991.416 151.656a16.889 16.889 0 0 1 12.047 11.96l28.032 104.618c2.412 9-2.929 18.25-11.929 20.661L758.305 358.9c-8.999 2.412-18.249-2.929-20.661-11.928l-6.679-24.929c-2.396-8.938-11.722-14.323-20.661-11.929l-47.756 12.796c-8.939 2.395-18.266-2.99-20.661-11.929L609.181 188.92c-2.411-8.999 2.929-18.25 11.929-20.661l209.568-56.154a16.872 16.872 0 0 1 8.615-.031l152.123 39.582z"/>
    <path id="R0C8_F" fill="#fff" stroke="#000" stroke-linecap="round" d="M758.705 156.076c-1.02-3.808 1.274-7.78 5.081-8.801l30.08-8.06a7.17 7.17 0 0 1 1.86-.245 7.202 7.202 0 0 1 6.94 5.326l8.06 30.08c.163.607.245 1.233.245 1.861a7.201 7.201 0 0 1-5.326 6.94l-30.079 8.059c-3.808 1.02-7.78-1.274-8.801-5.081l-8.06-30.079z"/>
    <path id="R1C8_F" fill="#fff" stroke="#000" stroke-linecap="round" d="M772.62 208.007a7.17 7.17 0 0 1-.245-1.86 7.201 7.201 0 0 1 5.326-6.94l30.08-8.06a7.17 7.17 0 0 1 1.86-.245 7.202 7.202 0 0 1 6.94 5.326l8.06 30.079c1.02 3.808-1.274 7.78-5.081 8.801l-30.079 8.06c-3.808 1.02-7.78-1.274-8.801-5.081l-8.06-30.08z"/>
    <path id="R2C8_F" fill="#fff" stroke="#000" stroke-linecap="round" d="M786.535 259.939c-1.02-3.808 1.274-7.78 5.081-8.801l30.08-8.06a7.205 7.205 0 0 1 1.859-.245 7.203 7.203 0 0 1 6.941 5.327l8.06 30.079c.163.607.245 1.233.245 1.861a7.201 7.201 0 0 1-5.326 6.94l-30.079 8.059a7.187 7.187 0 0 1-1.863.246 7.2 7.2 0 0 1-6.938-5.327l-8.06-30.079z"/>
    <path id="R0C7_F" fill="#fff" stroke="#000" stroke-linecap="round" d="M709.45 195.8c-1.02-3.808 1.274-7.78 5.081-8.801l30.079-8.059c3.808-1.02 7.78 1.274 8.801 5.081l8.06 30.079c1.02 3.808-1.274 7.78-5.081 8.801l-30.079 8.059a7.187 7.187 0 0 1-1.863.246 7.2 7.2 0 0 1-6.938-5.327l-8.06-30.079z"/>
    <path id="R1C7_F" fill="#fff" stroke="#000" stroke-linecap="round" d="M723.365 247.732c-1.02-3.808 1.274-7.78 5.081-8.801l30.079-8.06c3.808-1.02 7.78 1.274 8.801 5.081l8.06 30.079c1.02 3.808-1.274 7.78-5.081 8.801l-30.079 8.06c-3.808 1.02-7.78-1.274-8.801-5.081l-8.06-30.079z"/>
    <path id="R2C7_F" fill="#fff" stroke="#000" stroke-linecap="round" d="M737.28 299.663c-1.02-3.808 1.274-7.78 5.081-8.801l30.079-8.059c3.808-1.02 7.78 1.274 8.801 5.081l8.06 30.079c1.02 3.808-1.274 7.78-5.081 8.801l-30.079 8.06c-3.808 1.02-7.781-1.274-8.801-5.082l-8.06-30.079z"/>
    <path id="R0C9_F" fill="#fff" stroke="#000" stroke-linecap="round" d="M821.224 165.85a7.17 7.17 0 0 1-.245-1.86 7.202 7.202 0 0 1 5.326-6.94l30.079-8.06c3.808-1.02 7.78 1.274 8.801 5.081l8.059 30.079c.163.607.246 1.234.246 1.863a7.2 7.2 0 0 1-5.327 6.938l-30.079 8.06c-3.808 1.02-7.78-1.274-8.801-5.081l-8.059-30.08z"/>
    <path id="R1C9_F" fill="#fff" stroke="#000" stroke-linecap="round" d="M835.139 217.782c-1.02-3.808 1.274-7.78 5.081-8.801l30.079-8.06c3.808-1.02 7.781 1.274 8.801 5.082l8.059 30.079a7.18 7.18 0 0 1 .246 1.862 7.201 7.201 0 0 1-5.327 6.939l-30.079 8.059a7.18 7.18 0 0 1-1.862.246 7.201 7.201 0 0 1-6.939-5.327l-8.059-30.079z"/>
    <path id="R2C9_F" fill="#fff" stroke="#000" stroke-linecap="round" d="M849.054 269.713a7.17 7.17 0 0 1-.245-1.86 7.202 7.202 0 0 1 5.326-6.94l30.079-8.06c3.808-1.02 7.78 1.274 8.801 5.081l8.059 30.079c.163.607.246 1.234.246 1.863a7.2 7.2 0 0 1-5.327 6.938l-30.079 8.06c-3.808 1.02-7.78-1.274-8.801-5.081l-8.059-30.08z"/>
    <path id="R2C11_F" fill="#fff" stroke="#000" stroke-linecap="round" d="M955.249 218.946c-1.02-3.808 1.274-7.78 5.081-8.801l30.079-8.06c3.808-1.02 7.781 1.274 8.801 5.082l8.06 30.079c1.02 3.808-1.274 7.78-5.081 8.801l-30.079 8.059a7.187 7.187 0 0 1-1.863.246 7.2 7.2 0 0 1-6.938-5.327l-8.06-30.079z"/>
    <path id="R1C10_F" fill="#fff" stroke="#000" stroke-linecap="round" d="M891.337 203.97c-1.02-3.808 1.274-7.78 5.081-8.801l30.079-8.06c3.808-1.02 7.78 1.274 8.801 5.081l8.06 30.08a7.17 7.17 0 0 1 .245 1.86 7.201 7.201 0 0 1-5.326 6.94l-30.08 8.06a7.17 7.17 0 0 1-1.86.245 7.202 7.202 0 0 1-6.94-5.326l-8.06-30.079z"/>
    <path id="R2C10_F" fill="#fff" stroke="#000" stroke-linecap="round" d="M905.017 255.023a7.184 7.184 0 0 1 5.081-8.8l30.079-8.06c3.808-1.02 7.78 1.274 8.801 5.081l8.06 30.079c1.02 3.808-1.274 7.781-5.082 8.801l-30.079 8.06c-3.808 1.02-7.78-1.274-8.801-5.081l-8.059-30.08z"/>
    <path id="R0C6_F" fill="#fff" stroke="#000" stroke-linecap="round" d="M655.435 217.759c-1.02-3.808 1.274-7.78 5.081-8.801l30.079-8.06c3.808-1.02 7.78 1.274 8.801 5.081l8.059 30.08c.163.608.246 1.234.246 1.863 0 3.242-2.195 6.1-5.327 6.937l-30.079 8.06c-3.808 1.02-7.78-1.274-8.801-5.081l-8.059-30.079z"/>
    <path id="R1C6_F" fill="#fff" stroke="#000" stroke-linecap="round" d="M669.35 269.69c-1.02-3.808 1.274-7.78 5.081-8.801l30.079-8.059a7.18 7.18 0 0 1 1.862-.246 7.201 7.201 0 0 1 6.939 5.327l8.059 30.079a7.18 7.18 0 0 1 .246 1.862 7.201 7.201 0 0 1-5.327 6.939l-30.079 8.06c-3.808 1.02-7.781-1.274-8.801-5.082l-8.059-30.079z"/>
    <path id="R4C4_F" fill="#fff" stroke="#000" stroke-linecap="round" d="M735.214 432.868c-3.023.81-6.247.385-8.958-1.179a11.81 11.81 0 0 1-5.5-7.168l-.253-.944a11.814 11.814 0 0 1-.403-3.057c0-5.325 3.605-10.023 8.75-11.4l7.016-1.88a5.519 5.519 0 0 1 1.429-.188 5.531 5.531 0 0 1 5.33 4.089l3.507 13.089c.782 2.924-.979 5.974-3.902 6.758l-7.016 1.88z"/>
    <path id="R3C4_F" fill="#fff" stroke="#000" stroke-linecap="round" d="M672.118 378.698a11.802 11.802 0 0 1-14.457-8.346l-.253-.945a11.814 11.814 0 0 1-.403-3.057c0-5.325 3.605-10.023 8.75-11.4l7.016-1.88c2.924-.782 5.974.979 6.758 3.902l3.507 13.088c.783 2.924-.978 5.975-3.902 6.758-2.086.56-4.565 1.224-7.016 1.88z"/>
    <path id="R4C6_F" fill="#fff" stroke="#000" stroke-linecap="round" d="M780.527 395.273c6.255-1.675 12.78 2.093 14.457 8.347l.253.944c1.675 6.255-2.093 12.78-8.347 14.457l-7.016 1.88a5.521 5.521 0 0 1-1.43.189 5.529 5.529 0 0 1-5.328-4.091l-3.507-13.088a5.521 5.521 0 0 1-.189-1.43 5.529 5.529 0 0 1 4.091-5.328l7.016-1.88z"/>
    <path id="R3C6_F" fill="#fff" stroke="#000" stroke-linecap="round" d="M717.431 341.103c6.255-1.675 12.781 2.092 14.457 8.347l.253.944c.268.997.403 2.026.403 3.058a11.83 11.83 0 0 1-8.75 11.4l-7.016 1.88c-2.924.782-5.974-.979-6.758-3.902l-3.507-13.088c-.783-2.924.978-5.975 3.902-6.759l7.016-1.88z"/>
    <path id="R4C5_F" fill="#fff" stroke="#000" stroke-linecap="round" d="M739.073 391.414c-1.675-6.255 2.092-12.781 8.347-14.457l.944-.253a11.82 11.82 0 0 1 3.057-.403 11.83 11.83 0 0 1 11.4 8.75l1.88 7.016c.782 2.924-.979 5.974-3.902 6.758l-13.088 3.507c-2.924.782-5.974-.979-6.758-3.902l-1.88-7.016z"/>
    <path id="R3C5_F" fill="#fff" stroke="#000" stroke-linecap="round" d="M675.977 337.244c-1.675-6.255 2.093-12.78 8.347-14.457l.944-.253c6.255-1.675 12.78 2.093 14.457 8.347l1.88 7.016c.125.466.189.947.189 1.43a5.529 5.529 0 0 1-4.09 5.328l-13.089 3.507a5.521 5.521 0 0 1-1.43.189 5.529 5.529 0 0 1-5.328-4.09l-1.88-7.017z"/>
    <path id="R4C7_F" fill="#fff" stroke="#000" stroke-linecap="round" d="M776.668 436.727c.267.997.403 2.024.403 3.057 0 5.325-3.605 10.023-8.75 11.4l-.944.253c-6.255 1.676-12.782-2.092-14.458-8.347l-1.88-7.016c-.782-2.924.979-5.974 3.902-6.758l13.089-3.507a5.519 5.519 0 0 1 1.429-.188 5.529 5.529 0 0 1 5.329 4.09l1.88 7.016z"/>
    <path id="R3C7_F" fill="#fff" stroke="#000" stroke-linecap="round" d="M713.572 382.558c1.675 6.255-2.093 12.78-8.347 14.457l-.944.253c-6.255 1.675-12.78-2.093-14.457-8.347l-1.88-7.016a5.521 5.521 0 0 1-.189-1.43 5.529 5.529 0 0 1 4.091-5.328l13.088-3.507a5.521 5.521 0 0 1 1.43-.189 5.529 5.529 0 0 1 5.328 4.09l1.88 7.017z"/>
</svg>
