<svg xmlns="http://www.w3.org/2000/svg" fill-rule="evenodd" stroke-linejoin="round" stroke-miterlimit="1.5" clip-rule="evenodd" viewBox="0 0 1000 600">
    <g id="keyboard_outline">
        <path fill="#fff" stroke="#b4b4b4" stroke-width="1.4" d="M866.316 136.919c6.277-1.007 12.671-.287 18.412 2.074 23.174 9.525 86.391 35.522 113.455 46.651 7.947 3.27 13.807 9.803 15.947 17.786 3.89 14.501 10.22 38.121 14.02 52.312.84 3.155.32 6.539-1.46 9.407-1.78 2.868-4.67 4.986-8.04 5.887l-253.498 67.926c-8.999 2.412-18.249-2.929-20.661-11.928l-3.888-14.508c-1.454-5.426-7.322-8.569-13.107-7.019l-28.935 7.753c-8.939 2.395-18.266-2.99-20.661-11.929l-20.56-76.73c-2.071-7.73 1.559-15.989 8.902-20.254l72.026-41.834a84.022 84.022 0 0 1 22.569-9.028c23.622-3.778 82.251-12.942 105.479-16.566z" transform="matrix(.9845 .28122 -.2638 1.04952 -47.53 -324.865)"/>
        <path fill="#fff" stroke="#b4b4b4" stroke-width="1.45" d="M332.26 136.91c-6.244-1.001-12.603-.294-18.322 2.038-23.104 9.415-86.192 35.14-113.283 46.186-7.991 3.258-13.882 9.807-16.028 17.819l-14.011 52.287c-1.757 6.56 2.478 13.4 9.468 15.288l253.393 68.434c9 2.412 18.25-2.929 20.661-11.928l3.888-14.508c.698-2.606 2.471-4.809 4.929-6.126 2.458-1.316 5.4-1.637 8.178-.893l28.935 7.753c8.939 2.395 18.266-2.99 20.661-11.929l20.684-77.189c2.08-7.762-1.589-16.053-8.984-20.302l-72.223-41.494a83.96 83.96 0 0 0-22.203-8.826c-23.5-3.761-82.483-12.98-105.743-16.61z" transform="matrix(.9845 -.28122 .2638 1.04952 -150.555 12.804)"/>
    </g>
    <g id="keyshapes">
        <path id="R0C8_keyshape" fill="#fff" stroke="#b4b4b4" stroke-linecap="round" stroke-width="1.5" d="M667.654 74.182c0-3.942 3.244-7.185 7.186-7.186h31.141a7.17 7.17 0 0 1 1.86.245 7.22 7.22 0 0 1 5.325 6.94v31.142c0 .628-.082 1.254-.245 1.86a7.22 7.22 0 0 1-6.94 5.326l-31.14-.001c-3.943 0-7.186-3.244-7.186-7.186v-31.14z"/>
        <path id="R1C8_keyshape" fill="#fff" stroke="#b4b4b4" stroke-linecap="round" stroke-width="1.5" d="M667.654 127.945c0-.628.083-1.253.245-1.86a7.22 7.22 0 0 1 6.94-5.325h31.142a7.17 7.17 0 0 1 1.86.245 7.22 7.22 0 0 1 5.325 6.94v31.14c0 3.943-3.244 7.186-7.185 7.187h-31.14c-3.943 0-7.186-3.244-7.187-7.186v-31.14z"/>
        <path id="R2C8_keyshape" fill="#fff" stroke="#b4b4b4" stroke-linecap="round" stroke-width="1.5" d="M667.654 181.709c0-3.942 3.244-7.185 7.186-7.186h31.141a7.2 7.2 0 0 1 1.86.244 7.22 7.22 0 0 1 5.325 6.942v31.14c0 .629-.082 1.255-.245 1.862a7.22 7.22 0 0 1-6.94 5.325l-31.14-.001c-.63 0-1.256-.082-1.864-.245a7.218 7.218 0 0 1-5.322-6.94v-31.141z"/>
        <path id="R0C7_keyshape" fill="#fff" stroke="#b4b4b4" stroke-linecap="round" stroke-width="1.5" d="M609.796 89.804c0-3.942 3.244-7.185 7.186-7.186l31.14.001c3.942 0 7.185 3.244 7.186 7.186v31.14c0 3.942-3.244 7.185-7.185 7.186h-31.14c-.63 0-1.256-.082-1.864-.245a7.218 7.218 0 0 1-5.322-6.941v-31.14z"/>
        <path id="R1C7_keyshape" fill="#fff" stroke="#b4b4b4" stroke-linecap="round" stroke-width="1.5" d="M609.796 143.568c0-3.942 3.244-7.185 7.186-7.186h31.14c3.942 0 7.185 3.244 7.186 7.186v31.14c0 3.942-3.244 7.185-7.185 7.186h-31.14c-3.943 0-7.186-3.244-7.187-7.185v-31.14z"/>
        <path id="R2C7_keyshape" fill="#fff" stroke="#b4b4b4" stroke-linecap="round" stroke-width="1.5" d="M609.796 197.331c0-3.942 3.244-7.185 7.186-7.186h31.14c3.942.001 7.185 3.245 7.186 7.187v31.14c0 3.942-3.244 7.185-7.185 7.186h-31.14c-3.943 0-7.187-3.244-7.186-7.186v-31.14z"/>
        <path id="R0C9_keyshape" fill="#fff" stroke="#b4b4b4" stroke-linecap="round" stroke-width="1.5" d="M725.727 85.804c0-.628.082-1.253.245-1.86a7.22 7.22 0 0 1 6.94-5.325h31.14c3.943 0 7.186 3.244 7.187 7.186v31.14c0 .628-.083 1.255-.245 1.863a7.218 7.218 0 0 1-6.942 5.322h-31.14c-3.942 0-7.185-3.243-7.186-7.185l.001-31.14z"/>
        <path id="R1C9_keyshape" fill="#fff" stroke="#b4b4b4" stroke-linecap="round" stroke-width="1.5" d="M725.548 139.568c0-3.942 3.244-7.185 7.186-7.186h31.14c3.942 0 7.186 3.244 7.186 7.186v31.14a7.18 7.18 0 0 1-.245 1.863 7.219 7.219 0 0 1-6.942 5.323h-31.14a7.18 7.18 0 0 1-1.862-.245 7.219 7.219 0 0 1-5.324-6.941l.001-31.14z"/>
        <path id="R2C9_keyshape" fill="#fff" stroke="#b4b4b4" stroke-linecap="round" stroke-width="1.5" d="M726.058 193.331c0-.628.082-1.253.245-1.86a7.22 7.22 0 0 1 6.94-5.325h31.14c3.943 0 7.186 3.244 7.186 7.185v31.14a7.2 7.2 0 0 1-.245 1.864 7.218 7.218 0 0 1-6.94 5.322h-31.141c-3.942 0-7.185-3.243-7.186-7.185v-31.14z"/>
        <path id="R2C11_keyshape" fill="#fff" stroke="#b4b4b4" stroke-linecap="round" stroke-width="1.5" d="M841.23 176.78c0-3.943 3.243-7.186 7.185-7.187h31.14c3.942 0 7.186 3.244 7.186 7.187v31.14c0 3.942-3.24 7.186-7.184 7.186h-31.141c-.63 0-1.256-.083-1.864-.245a7.218 7.218 0 0 1-5.322-6.942v-31.14z"/>
        <path id="R1C10_keyshape" fill="#fff" stroke="#b4b4b4" stroke-linecap="round" stroke-width="1.5" d="M783.371 144.772c0-3.942 3.244-7.185 7.186-7.186h31.14c3.942 0 7.185 3.244 7.186 7.185v31.141a7.17 7.17 0 0 1-.245 1.86 7.22 7.22 0 0 1-6.94 5.325h-31.141a7.17 7.17 0 0 1-1.86-.244 7.22 7.22 0 0 1-5.326-6.941v-31.14z"/>
        <path id="R2C10_keyshape" fill="#fff" stroke="#b4b4b4" stroke-linecap="round" stroke-width="1.5" d="M783.371 197.626c0-.629.083-1.253.245-1.86a7.201 7.201 0 0 1 6.94-5.325h31.141c3.942 0 7.185 3.244 7.186 7.185v31.14c0 3.943-3.244 7.187-7.186 7.186h-31.14c-3.943 0-7.186-3.244-7.186-7.185v-31.141z"/>
        <path id="R0C6_keyshape" fill="#fff" stroke="#b4b4b4" stroke-linecap="round" stroke-width="1.5" d="M551.938 97.035c0-3.942 3.245-7.185 7.186-7.186h31.14c3.942 0 7.185 3.244 7.186 7.185v31.141c0 .63-.082 1.256-.245 1.864a7.198 7.198 0 0 1-6.941 5.321h-31.14c-3.942 0-7.185-3.243-7.186-7.185v-31.14z"/>
        <path id="R1C6_keyshape" fill="#fff" stroke="#b4b4b4" stroke-linecap="round" stroke-width="1.5" d="M551.938 150.798c0-3.942 3.245-7.185 7.186-7.186h31.14a7.18 7.18 0 0 1 1.862.245 7.219 7.219 0 0 1 5.324 6.941v31.14a7.18 7.18 0 0 1-.245 1.863 7.219 7.219 0 0 1-6.941 5.323h-31.14c-3.943 0-7.186-3.244-7.186-7.186v-31.14z"/>
        <path id="R0C3_keyshape" fill="#fff" stroke="#b4b4b4" stroke-linecap="round" stroke-width="1.5" d="M314.303 74.728c0-3.943-3.244-7.185-7.185-7.186h-31.14c-3.943 0-7.186 3.243-7.186 7.185v31.141c0 .629.082 1.255.244 1.861a7.22 7.22 0 0 0 6.942 5.325h31.14c3.942-.001 7.185-3.245 7.186-7.186v-31.14z"/>
        <path id="R1C3_keyshape" fill="#fff" stroke="#b4b4b4" stroke-linecap="round" stroke-width="1.5" d="M314.303 131.49a7.17 7.17 0 0 0-.244-1.86 7.22 7.22 0 0 0-6.941-5.324h-31.14c-3.943 0-7.185 3.243-7.186 7.185v31.14c0 3.942 3.244 7.186 7.186 7.186h31.14c3.942 0 7.185-3.244 7.186-7.185V131.49z"/>
        <path id="R2C3_keyshape" fill="#fff" stroke="#b4b4b4" stroke-linecap="round" stroke-width="1.5" d="M314.303 182.255a7.18 7.18 0 0 0-.244-1.863 7.219 7.219 0 0 0-6.941-5.323h-31.14c-3.943 0-7.187 3.244-7.186 7.186v31.14c0 .629.082 1.254.244 1.861a7.22 7.22 0 0 0 6.942 5.325h31.14a7.18 7.18 0 0 0 1.862-.245 7.219 7.219 0 0 0 5.324-6.942v-31.14z"/>
        <path id="R0C4_keyshape" fill="#fff" stroke="#b4b4b4" stroke-linecap="round" stroke-width="1.5" d="M372.162 90.35c0-3.943-3.244-7.186-7.186-7.186h-31.14c-3.942 0-7.185 3.245-7.186 7.186v31.14c0 .629.082 1.255.245 1.862a7.219 7.219 0 0 0 6.941 5.324h31.14a7.18 7.18 0 0 0 1.862-.245 7.219 7.219 0 0 0 5.324-6.941V90.35z"/>
        <path id="R1C4_keyshape" fill="#fff" stroke="#b4b4b4" stroke-linecap="round" stroke-width="1.5" d="M372.163 144.114c0-3.943-3.245-7.186-7.187-7.186h-31.14c-3.943 0-7.185 3.244-7.186 7.185v31.14c0 .63.082 1.256.245 1.863a7.218 7.218 0 0 0 6.941 5.323h31.14c3.942 0 7.185-3.244 7.186-7.185v-31.14z"/>
        <path id="R2C4_keyshape" fill="#fff" stroke="#b4b4b4" stroke-linecap="round" stroke-width="1.5" d="M372.162 197.877c0-3.943-3.244-7.186-7.186-7.186h-31.14c-3.942 0-7.185 3.245-7.186 7.186v31.14c0 .629.082 1.255.245 1.862a7.219 7.219 0 0 0 6.941 5.324h31.14c3.943 0 7.186-3.244 7.186-7.186v-31.14z"/>
        <path id="R0C2_keyshape" fill="#fff" stroke="#b4b4b4" stroke-linecap="round" stroke-width="1.5" d="M256.445 86.35a7.17 7.17 0 0 0-.244-1.86 7.22 7.22 0 0 0-6.941-5.326h-31.14c-3.942 0-7.185 3.244-7.186 7.186v31.14c0 3.942 3.244 7.185 7.185 7.186h31.14c3.942 0 7.185-3.244 7.186-7.185V86.349z"/>
        <path id="R1C2_keyshape" fill="#fff" stroke="#b4b4b4" stroke-linecap="round" stroke-width="1.5" d="M256.446 140.113c0-3.942-3.245-7.185-7.186-7.186h-31.14c-3.943 0-7.187 3.244-7.186 7.187v31.14c0 3.942 3.244 7.185 7.185 7.186h31.14a7.18 7.18 0 0 0 1.863-.245 7.218 7.218 0 0 0 5.323-6.941v-31.14z"/>
        <path id="R2C2_keyshape" fill="#fff" stroke="#b4b4b4" stroke-linecap="round" stroke-width="1.5" d="M256.445 193.876a7.17 7.17 0 0 0-.244-1.86 7.22 7.22 0 0 0-6.941-5.325h-31.14c-3.942 0-7.185 3.244-7.186 7.186v31.14c0 3.942 3.244 7.185 7.185 7.186h31.14c3.942 0 7.185-3.244 7.186-7.185v-31.142z"/>
        <path id="R2C0_keyshape" fill="#fff" stroke="#b4b4b4" stroke-linecap="round" stroke-width="1.5" d="M140.73 177.325c0-3.943-3.245-7.187-7.187-7.186h-31.14c-3.943 0-7.187 3.244-7.186 7.186v31.14c0 .628.082 1.255.245 1.862a7.219 7.219 0 0 0 6.941 5.324h31.14a7.18 7.18 0 0 0 1.862-.245 7.219 7.219 0 0 0 5.324-6.941v-31.14z"/>
        <path id="R1C1_keyshape" fill="#fff" stroke="#b4b4b4" stroke-linecap="round" stroke-width="1.5" d="M198.588 145.317c0-3.942-3.245-7.185-7.186-7.186H160.26a7.17 7.17 0 0 0-1.86.245 7.22 7.22 0 0 0-5.325 6.94v31.142c0 .628.082 1.253.244 1.86a7.22 7.22 0 0 0 6.941 5.325h31.14c3.942 0 7.185-3.244 7.186-7.186v-31.14z"/>
        <path id="R2C1_keyshape" fill="#fff" stroke="#b4b4b4" stroke-linecap="round" stroke-width="1.5" d="M198.587 198.171a7.17 7.17 0 0 0-.245-1.86 7.22 7.22 0 0 0-6.94-5.325h-31.14c-3.943 0-7.186 3.244-7.186 7.186v31.14c0 3.942 3.243 7.185 7.185 7.186h31.14c3.942 0 7.185-3.244 7.186-7.186v-31.14z"/>
        <path id="R0C5_keyshape" fill="#fff" stroke="#b4b4b4" stroke-linecap="round" stroke-width="1.5" d="M430.02 97.58c0-3.942-3.244-7.185-7.185-7.186h-31.14c-3.943 0-7.186 3.244-7.187 7.186v31.14c0 .63.083 1.254.245 1.86a7.22 7.22 0 0 0 6.94 5.326h31.142a7.17 7.17 0 0 0 1.86-.245 7.22 7.22 0 0 0 5.325-6.94V97.58z"/>
        <path id="R1C5_keyshape" fill="#fff" stroke="#b4b4b4" stroke-linecap="round" stroke-width="1.5" d="M430.02 151.343c0-3.942-3.244-7.185-7.186-7.186h-31.14c-.629 0-1.255.083-1.863.245a7.218 7.218 0 0 0-5.322 6.942v31.14c0 3.942 3.243 7.185 7.185 7.186h31.14c3.942 0 7.186-3.244 7.186-7.186v-31.14z"/>
        <path id="R4C5_keyshape" fill="#fff" stroke="#b4b4b4" stroke-linecap="round" stroke-width="1.5" d="M665.38 287.861c0-3.942 3.243-7.185 7.185-7.186h31.14c3.942.001 7.185 3.245 7.186 7.187v31.14c0 3.942-3.244 7.185-7.185 7.186h-31.14c-3.943 0-7.187-3.244-7.186-7.186v-31.14z"/>
        <path id="R4C6_keyshape" fill="#fff" stroke="#b4b4b4" stroke-linecap="round" stroke-width="1.5" d="M710.866 332.374c0-3.942 3.244-7.185 7.186-7.186h31.14c3.942.001 7.185 3.245 7.186 7.187v31.14c0 3.942-3.244 7.185-7.185 7.186h-31.14c-3.943 0-7.187-3.244-7.186-7.186v-31.14z"/>
        <path id="R4C4_keyshape" fill="#fff" stroke="#b4b4b4" stroke-linecap="round" stroke-width="1.5" d="M619.867 333.374c0-3.942 3.244-7.185 7.186-7.186h31.14c3.942.001 7.185 3.245 7.186 7.187v31.14c0 3.942-3.244 7.185-7.186 7.186h-31.14c-3.942 0-7.186-3.244-7.186-7.186v-31.14z"/>
        <path id="R4C7_keyshape" fill="#fff" stroke="#b4b4b4" stroke-linecap="round" stroke-width="1.5" d="M665.38 378.887c0-3.942 3.243-7.185 7.185-7.186h31.14c3.942.001 7.185 3.245 7.186 7.187v31.14c0 3.942-3.244 7.185-7.185 7.186h-31.14c-3.943 0-7.187-3.244-7.186-7.186v-31.14z"/>
        <path id="R3C5_keyshape" fill="#fff" stroke="#b4b4b4" stroke-linecap="round" stroke-width="1.5" d="M544.355 216.835c0-3.942 3.244-7.185 7.186-7.186h31.14c3.942.001 7.185 3.245 7.186 7.187v31.14c0 3.942-3.244 7.185-7.186 7.186h-31.14c-3.942 0-7.186-3.244-7.186-7.186v-31.14z"/>
        <path id="R4C1_keyshape" fill="#fff" stroke="#b4b4b4" stroke-linecap="round" stroke-width="1.5" d="M270.878 287.861c0-3.942 3.245-7.185 7.186-7.186h31.14c3.942.001 7.185 3.245 7.186 7.187v31.14c0 3.942-3.244 7.185-7.185 7.186h-31.14c-3.943 0-7.187-3.244-7.186-7.186v-31.14z"/>
        <path id="R3C1_keyshape" fill="#fff" stroke="#b4b4b4" stroke-linecap="round" stroke-width="1.5" d="M392.091 216.835c0-3.942 3.245-7.185 7.186-7.186h31.14c3.942.001 7.185 3.245 7.186 7.187v31.14c0 3.942-3.244 7.185-7.185 7.186h-31.14c-3.943 0-7.187-3.244-7.186-7.186v-31.14z"/>
        <path id="R3C6_keyshape" fill="#fff" stroke="#b4b4b4" stroke-linecap="round" stroke-width="1.5" d="M589.67 262.348c0-3.942 3.245-7.185 7.186-7.186h31.14c3.942.001 7.185 3.245 7.186 7.187v31.14c0 3.942-3.244 7.185-7.185 7.186h-31.14c-3.943 0-7.187-3.244-7.186-7.186v-31.14z"/>
        <path id="R4C2_keyshape" fill="#fff" stroke="#b4b4b4" stroke-linecap="round" stroke-width="1.5" d="M315.985 333.374c0-3.942 3.245-7.185 7.186-7.186h31.14c3.942.001 7.185 3.245 7.186 7.187v31.14c0 3.942-3.244 7.185-7.185 7.186h-31.14c-3.943 0-7.187-3.244-7.186-7.186v-31.14z"/>
        <path id="R3C2_keyshape" fill="#fff" stroke="#b4b4b4" stroke-linecap="round" stroke-width="1.5" d="M437.603 262.348c0-3.942 3.245-7.185 7.186-7.186h31.14c3.942.001 7.185 3.245 7.186 7.187v31.14c0 3.942-3.244 7.185-7.185 7.186h-31.14c-3.943 0-7.187-3.244-7.186-7.186v-31.14z"/>
        <path id="R3C4_keyshape" fill="#fff" stroke="#b4b4b4" stroke-linecap="round" stroke-width="1.5" d="M498.843 262.348c0-3.942 3.245-7.185 7.186-7.186h31.14c3.942.001 7.185 3.245 7.186 7.187v31.14c0 3.942-3.244 7.185-7.185 7.186h-31.14c-3.943 0-7.187-3.244-7.186-7.186v-31.14z"/>
        <path id="R4C0_keyshape" fill="#fff" stroke="#b4b4b4" stroke-linecap="round" stroke-width="1.5" d="M225.555 333.374c0-3.942 3.245-7.185 7.186-7.186h31.14c3.942.001 7.185 3.245 7.186 7.187v31.14c0 3.942-3.244 7.185-7.185 7.186h-31.14c-3.943 0-7.187-3.244-7.186-7.186v-31.14z"/>
        <path id="R3C0_keyshape" fill="#fff" stroke="#b4b4b4" stroke-linecap="round" stroke-width="1.5" d="M346.58 262.348c0-3.942 3.244-7.185 7.185-7.186h31.14c3.942.001 7.185 3.245 7.186 7.187v31.14c0 3.942-3.244 7.185-7.185 7.186h-31.14c-3.943 0-7.187-3.244-7.186-7.186v-31.14z"/>
        <path id="R3C7_keyshape" fill="#fff" stroke="#b4b4b4" stroke-linecap="round" stroke-width="1.5" d="M544.355 307.861c0-3.942 3.244-7.185 7.186-7.186h31.14c3.942.001 7.185 3.245 7.186 7.187v31.14c0 3.942-3.244 7.185-7.186 7.186h-31.14c-3.942 0-7.186-3.244-7.186-7.186v-31.14z"/>
        <path id="R4C3_keyshape" fill="#fff" stroke="#b4b4b4" stroke-linecap="round" stroke-width="1.5" d="M271.067 378.887c0-3.942 3.245-7.185 7.186-7.186h31.14c3.942.001 7.185 3.245 7.186 7.187v31.14c0 3.942-3.244 7.185-7.185 7.186h-31.14c-3.943 0-7.187-3.244-7.186-7.186v-31.14z"/>
        <path id="R3C3_keyshape" fill="#fff" stroke="#b4b4b4" stroke-linecap="round" stroke-width="1.5" d="M392.091 307.861c0-3.942 3.245-7.185 7.186-7.186h31.14c3.942.001 7.185 3.245 7.186 7.187v31.14c0 3.942-3.244 7.185-7.185 7.186h-31.14c-3.943 0-7.187-3.244-7.186-7.186v-31.14z"/>
    </g>
    <g id="labels" pointer-events="none">
        <g transform="matrix(.9 0 0 1 567.51 -84.128)">
            <text id="R0C8_t_primary" x="116" y="177.877" font-family="'OpenSans-Bold','Open Sans',sans-serif" font-size="13" font-weight="700">
                Prim
            </text>
        </g>
        <g transform="matrix(.9 0 0 1 567.51 -30.364)">
            <text id="R1C8_t_primary" x="116" y="177.877" font-family="'OpenSans-Bold','Open Sans',sans-serif" font-size="13" font-weight="700">
                Prim
            </text>
        </g>
        <g transform="matrix(.9 0 0 1 567.51 23.4)">
            <text id="R2C8_t_primary" x="116" y="177.877" font-family="'OpenSans-Bold','Open Sans',sans-serif" font-size="13" font-weight="700">
                Prim
            </text>
        </g>
        <g transform="matrix(.9 0 0 1 509.652 -68.505)">
            <text id="R0C7_t_primary" x="116" y="177.877" font-family="'OpenSans-Bold','Open Sans',sans-serif" font-size="13" font-weight="700">
                Prim
            </text>
        </g>
        <g transform="matrix(.9 0 0 1 509.652 -14.742)">
            <text id="R1C7_t_primary" x="116" y="177.877" font-family="'OpenSans-Bold','Open Sans',sans-serif" font-size="13" font-weight="700">
                Prim
            </text>
        </g>
        <g transform="matrix(.9 0 0 1 509.652 39.022)">
            <text id="R2C7_t_primary" x="116" y="177.877" font-family="'OpenSans-Bold','Open Sans',sans-serif" font-size="13" font-weight="700">
                Prim
            </text>
        </g>
        <g transform="matrix(.9 0 0 1 625.582 -72.505)">
            <text id="R0C9_t_primary" x="116" y="177.877" font-family="'OpenSans-Bold','Open Sans',sans-serif" font-size="13" font-weight="700">
                Prim
            </text>
        </g>
        <g transform="matrix(.9 0 0 1 625.403 -18.742)">
            <text id="R1C9_t_primary" x="116" y="177.877" font-family="'OpenSans-Bold','Open Sans',sans-serif" font-size="13" font-weight="700">
                Prim
            </text>
        </g>
        <g transform="matrix(.9 0 0 1 625.913 35.022)">
            <text id="R2C9_t_primary" x="116" y="177.877" font-family="'OpenSans-Bold','Open Sans',sans-serif" font-size="13" font-weight="700">
                Prim
            </text>
        </g>
        <g transform="matrix(.9 0 0 1 741.085 18.47)">
            <text id="R2C11_t_primary" x="116" y="177.877" font-family="'OpenSans-Bold','Open Sans',sans-serif" font-size="13" font-weight="700">
                Prim
            </text>
        </g>
        <g transform="matrix(.9 0 0 1 683.227 -13.539)">
            <text id="R1C10_t_primary" x="116" y="177.877" font-family="'OpenSans-Bold','Open Sans',sans-serif" font-size="13" font-weight="700">
                Prim
            </text>
        </g>
        <g transform="matrix(.9 0 0 1 683.227 39.316)">
            <text id="R2C10_t_primary" x="116" y="177.877" font-family="'OpenSans-Bold','Open Sans',sans-serif" font-size="13" font-weight="700">
                Prim
            </text>
        </g>
        <g transform="matrix(.9 0 0 1 451.794 -61.275)">
            <text id="R0C6_t_primary" x="116" y="177.877" font-family="'OpenSans-Bold','Open Sans',sans-serif" font-size="13" font-weight="700">
                Prim
            </text>
        </g>
        <g transform="matrix(.9 0 0 1 451.794 -7.512)">
            <text id="R1C6_t_primary" x="116" y="177.877" font-family="'OpenSans-Bold','Open Sans',sans-serif" font-size="13" font-weight="700">
                Prim
            </text>
        </g>
        <g transform="matrix(.9 0 0 1 168.648 -83.582)">
            <text id="R0C3_t_primary" x="116" y="177.877" font-family="'OpenSans-Bold','Open Sans',sans-serif" font-size="13" font-weight="700">
                Prim
            </text>
        </g>
        <g transform="matrix(.9 0 0 1 168.648 -26.819)">
            <text id="R1C3_t_primary" x="116" y="177.877" font-family="'OpenSans-Bold','Open Sans',sans-serif" font-size="13" font-weight="700">
                Prim
            </text>
        </g>
        <g transform="matrix(.9 0 0 1 168.648 23.944)">
            <text id="R2C3_t_primary" x="116" y="177.877" font-family="'OpenSans-Bold','Open Sans',sans-serif" font-size="13" font-weight="700">
                Prim
            </text>
        </g>
        <g transform="matrix(.9 0 0 1 226.506 -67.96)">
            <text id="R0C4_t_primary" x="116" y="177.877" font-family="'OpenSans-Bold','Open Sans',sans-serif" font-size="13" font-weight="700">
                Prim
            </text>
        </g>
        <g transform="matrix(.9 0 0 1 226.506 -14.197)">
            <text id="R1C4_t_primary" x="116" y="177.877" font-family="'OpenSans-Bold','Open Sans',sans-serif" font-size="13" font-weight="700">
                Prim
            </text>
        </g>
        <g transform="matrix(.9 0 0 1 226.506 39.567)">
            <text id="R2C4_t_primary" x="116" y="177.877" font-family="'OpenSans-Bold','Open Sans',sans-serif" font-size="13" font-weight="700">
                Prim
            </text>
        </g>
        <g transform="matrix(.9 0 0 1 110.789 -71.96)">
            <text id="R0C2_t_primary" x="116" y="177.877" font-family="'OpenSans-Bold','Open Sans',sans-serif" font-size="13" font-weight="700">
                Prim
            </text>
        </g>
        <g transform="matrix(.9 0 0 1 110.789 -18.197)">
            <text id="R1C2_t_primary" x="116" y="177.877" font-family="'OpenSans-Bold','Open Sans',sans-serif" font-size="13" font-weight="700">
                Prim
            </text>
        </g>
        <g transform="matrix(.9 0 0 1 110.789 35.567)">
            <text id="R2C2_t_primary" x="116" y="177.877" font-family="'OpenSans-Bold','Open Sans',sans-serif" font-size="13" font-weight="700">
                Prim
            </text>
        </g>
        <g transform="matrix(.9 0 0 1 -4.927 19.015)">
            <text id="R2C0_t_primary" x="116" y="177.877" font-family="'OpenSans-Bold','Open Sans',sans-serif" font-size="13" font-weight="700">
                Prim
            </text>
        </g>
        <g transform="matrix(.9 0 0 1 52.932 -12.993)">
            <text id="R1C1_t_primary" x="116" y="177.877" font-family="'OpenSans-Bold','Open Sans',sans-serif" font-size="13" font-weight="700">
                Prim
            </text>
        </g>
        <g transform="matrix(.9 0 0 1 52.931 39.862)">
            <text id="R2C1_t_primary" x="116" y="177.877" font-family="'OpenSans-Bold','Open Sans',sans-serif" font-size="13" font-weight="700">
                Prim
            </text>
        </g>
        <g transform="matrix(.9 0 0 1 284.364 -60.73)">
            <text id="R0C5_t_primary" x="116" y="177.877" font-family="'OpenSans-Bold','Open Sans',sans-serif" font-size="13" font-weight="700">
                Prim
            </text>
        </g>
        <g transform="matrix(.9 0 0 1 284.364 -6.966)">
            <text id="R1C5_t_primary" x="116" y="177.877" font-family="'OpenSans-Bold','Open Sans',sans-serif" font-size="13" font-weight="700">
                Prim
            </text>
        </g>
        <g transform="matrix(.9 0 0 1 565.235 129.552)">
            <text id="R4C5_t_primary" x="116" y="177.877" font-family="'OpenSans-Bold','Open Sans',sans-serif" font-size="13" font-weight="700">
                Prim
            </text>
        </g>
        <g transform="matrix(.9 0 0 1 610.722 175.065)">
            <text id="R4C6_t_primary" x="116" y="177.877" font-family="'OpenSans-Bold','Open Sans',sans-serif" font-size="13" font-weight="700">
                Prim
            </text>
        </g>
        <g transform="matrix(.9 0 0 1 519.723 175.065)">
            <text id="R4C4_t_primary" x="116" y="177.877" font-family="'OpenSans-Bold','Open Sans',sans-serif" font-size="13" font-weight="700">
                Prim
            </text>
        </g>
        <g transform="matrix(.9 0 0 1 565.235 220.578)">
            <text id="R4C7_t_primary" x="116" y="177.877" font-family="'OpenSans-Bold','Open Sans',sans-serif" font-size="13" font-weight="700">
                Prim
            </text>
        </g>
        <g transform="matrix(.9 0 0 1 444.211 58.526)">
            <text id="R3C5_t_primary" x="116" y="177.877" font-family="'OpenSans-Bold','Open Sans',sans-serif" font-size="13" font-weight="700">
                Prim
            </text>
        </g>
        <g transform="matrix(.9 0 0 1 170.734 129.552)">
            <text id="R4C1_t_primary" x="116" y="177.877" font-family="'OpenSans-Bold','Open Sans',sans-serif" font-size="13" font-weight="700">
                Prim
            </text>
        </g>
        <g transform="matrix(.9 0 0 1 291.947 58.526)">
            <text id="R3C1_t_primary" x="116" y="177.877" font-family="'OpenSans-Bold','Open Sans',sans-serif" font-size="13" font-weight="700">
                Prim
            </text>
        </g>
        <g transform="matrix(.9 0 0 1 489.526 104.039)">
            <text id="R3C6_t_primary" x="116" y="177.877" font-family="'OpenSans-Bold','Open Sans',sans-serif" font-size="13" font-weight="700">
                Prim
            </text>
        </g>
        <g transform="matrix(.9 0 0 1 215.841 175.065)">
            <text id="R4C2_t_primary" x="116" y="177.877" font-family="'OpenSans-Bold','Open Sans',sans-serif" font-size="13" font-weight="700">
                Prim
            </text>
        </g>
        <g transform="matrix(.9 0 0 1 337.459 104.039)">
            <text id="R3C2_t_primary" x="116" y="177.877" font-family="'OpenSans-Bold','Open Sans',sans-serif" font-size="13" font-weight="700">
                Prim
            </text>
        </g>
        <g transform="matrix(.9 0 0 1 398.699 104.039)">
            <text id="R3C4_t_primary" x="116" y="177.877" font-family="'OpenSans-Bold','Open Sans',sans-serif" font-size="13" font-weight="700">
                Prim
            </text>
        </g>
        <g transform="matrix(.9 0 0 1 125.411 175.065)">
            <text id="R4C0_t_primary" x="116" y="177.877" font-family="'OpenSans-Bold','Open Sans',sans-serif" font-size="13" font-weight="700">
                Prim
            </text>
        </g>
        <g transform="matrix(.9 0 0 1 246.435 104.039)">
            <text id="R3C0_t_primary" x="116" y="177.877" font-family="'OpenSans-Bold','Open Sans',sans-serif" font-size="13" font-weight="700">
                Prim
            </text>
        </g>
        <g transform="matrix(.9 0 0 1 444.211 149.552)">
            <text id="R3C7_t_primary" x="116" y="177.877" font-family="'OpenSans-Bold','Open Sans',sans-serif" font-size="13" font-weight="700">
                Prim
            </text>
        </g>
        <g transform="matrix(.9 0 0 1 170.923 220.578)">
            <text id="R4C3_t_primary" x="116" y="177.877" font-family="'OpenSans-Bold','Open Sans',sans-serif" font-size="13" font-weight="700">
                Prim
            </text>
        </g>
        <g transform="matrix(.9 0 0 1 291.947 149.552)">
            <text id="R3C3_t_primary" x="116" y="177.877" font-family="'OpenSans-Bold','Open Sans',sans-serif" font-size="13" font-weight="700">
                Prim
            </text>
        </g>
        <g transform="translate(555.91 -68.695)">
            <text id="R0C8_t_secondary" x="116" y="175.01" font-family="'SourceCodePro-Bold','Source Code Pro',monospace" font-size="10" font-weight="700">
                SECOND
            </text>
        </g>
        <g transform="translate(555.91 -95.28)">
            <text id="R0C8_t_extra" x="116" y="175.01" font-family="'SourceCodePro-Bold','Source Code Pro',monospace" font-size="10" font-weight="700">
                EXTRA
            </text>
        </g>
        <g transform="translate(555.91 -14.931)">
            <text id="R1C8_t_secondary" x="116" y="175.01" font-family="'SourceCodePro-Bold','Source Code Pro',monospace" font-size="10" font-weight="700">
                SECOND
            </text>
        </g>
        <g transform="translate(555.91 -41.516)">
            <text id="R1C8_t_extra" x="116" y="175.01" font-family="'SourceCodePro-Bold','Source Code Pro',monospace" font-size="10" font-weight="700">
                EXTRA
            </text>
        </g>
        <g transform="translate(555.91 38.832)">
            <text id="R2C8_t_secondary" x="116" y="175.01" font-family="'SourceCodePro-Bold','Source Code Pro',monospace" font-size="10" font-weight="700">
                SECOND
            </text>
        </g>
        <g transform="translate(555.91 12.248)">
            <text id="R2C8_t_extra" x="116" y="175.01" font-family="'SourceCodePro-Bold','Source Code Pro',monospace" font-size="10" font-weight="700">
                EXTRA
            </text>
        </g>
        <g transform="translate(498.052 -53.072)">
            <text id="R0C7_t_secondary" x="116" y="175.01" font-family="'SourceCodePro-Bold','Source Code Pro',monospace" font-size="10" font-weight="700">
                SECOND
            </text>
        </g>
        <g transform="translate(498.052 -79.657)">
            <text id="R0C7_t_extra" x="116" y="175.01" font-family="'SourceCodePro-Bold','Source Code Pro',monospace" font-size="10" font-weight="700">
                EXTRA
            </text>
        </g>
        <g transform="translate(498.052 .691)">
            <text id="R1C7_t_secondary" x="116" y="175.01" font-family="'SourceCodePro-Bold','Source Code Pro',monospace" font-size="10" font-weight="700">
                SECOND
            </text>
        </g>
        <g transform="translate(498.052 -25.893)">
            <text id="R1C7_t_extra" x="116" y="175.01" font-family="'SourceCodePro-Bold','Source Code Pro',monospace" font-size="10" font-weight="700">
                EXTRA
            </text>
        </g>
        <g transform="translate(498.052 54.455)">
            <text id="R2C7_t_secondary" x="116" y="175.01" font-family="'SourceCodePro-Bold','Source Code Pro',monospace" font-size="10" font-weight="700">
                SECOND
            </text>
        </g>
        <g transform="translate(498.052 27.87)">
            <text id="R2C7_t_extra" x="116" y="175.01" font-family="'SourceCodePro-Bold','Source Code Pro',monospace" font-size="10" font-weight="700">
                EXTRA
            </text>
        </g>
        <g transform="translate(613.982 -57.072)">
            <text id="R0C9_t_secondary" x="116" y="175.01" font-family="'SourceCodePro-Bold','Source Code Pro',monospace" font-size="10" font-weight="700">
                SECOND
            </text>
        </g>
        <g transform="translate(613.982 -83.657)">
            <text id="R0C9_t_extra" x="116" y="175.01" font-family="'SourceCodePro-Bold','Source Code Pro',monospace" font-size="10" font-weight="700">
                EXTRA
            </text>
        </g>
        <g transform="translate(613.803 -3.31)">
            <text id="R1C9_t_secondary" x="116" y="175.01" font-family="'SourceCodePro-Bold','Source Code Pro',monospace" font-size="10" font-weight="700">
                SECOND
            </text>
        </g>
        <g transform="translate(613.803 -29.894)">
            <text id="R1C9_t_extra" x="116" y="175.01" font-family="'SourceCodePro-Bold','Source Code Pro',monospace" font-size="10" font-weight="700">
                EXTRA
            </text>
        </g>
        <g transform="translate(614.313 50.455)">
            <text id="R2C9_t_secondary" x="116" y="175.01" font-family="'SourceCodePro-Bold','Source Code Pro',monospace" font-size="10" font-weight="700">
                SECOND
            </text>
        </g>
        <g transform="translate(614.313 23.87)">
            <text id="R2C9_t_extra" x="116" y="175.01" font-family="'SourceCodePro-Bold','Source Code Pro',monospace" font-size="10" font-weight="700">
                EXTRA
            </text>
        </g>
        <g transform="translate(729.485 33.902)">
            <text id="R2C11_t_secondary" x="116" y="175.01" font-family="'SourceCodePro-Bold','Source Code Pro',monospace" font-size="10" font-weight="700">
                SECOND
            </text>
        </g>
        <g transform="translate(729.485 7.318)">
            <text id="R2C11_t_extra" x="116" y="175.01" font-family="'SourceCodePro-Bold','Source Code Pro',monospace" font-size="10" font-weight="700">
                EXTRA
            </text>
        </g>
        <g transform="translate(671.627 1.894)">
            <text id="R1C10_t_secondary" x="116" y="175.01" font-family="'SourceCodePro-Bold','Source Code Pro',monospace" font-size="10" font-weight="700">
                SECOND
            </text>
        </g>
        <g transform="translate(671.627 -24.69)">
            <text id="R1C10_t_extra" x="116" y="175.01" font-family="'SourceCodePro-Bold','Source Code Pro',monospace" font-size="10" font-weight="700">
                EXTRA
            </text>
        </g>
        <g transform="translate(671.627 54.75)">
            <text id="R2C10_t_secondary" x="116" y="175.01" font-family="'SourceCodePro-Bold','Source Code Pro',monospace" font-size="10" font-weight="700">
                SECOND
            </text>
        </g>
        <g transform="translate(671.627 28.165)">
            <text id="R2C10_t_extra" x="116" y="175.01" font-family="'SourceCodePro-Bold','Source Code Pro',monospace" font-size="10" font-weight="700">
                EXTRA
            </text>
        </g>
        <g transform="translate(440.194 -45.842)">
            <text id="R0C6_t_secondary" x="116" y="175.01" font-family="'SourceCodePro-Bold','Source Code Pro',monospace" font-size="10" font-weight="700">
                SECOND
            </text>
        </g>
        <g transform="translate(440.194 -72.427)">
            <text id="R0C6_t_extra" x="116" y="175.01" font-family="'SourceCodePro-Bold','Source Code Pro',monospace" font-size="10" font-weight="700">
                EXTRA
            </text>
        </g>
        <g transform="translate(440.194 7.921)">
            <text id="R1C6_t_secondary" x="116" y="175.01" font-family="'SourceCodePro-Bold','Source Code Pro',monospace" font-size="10" font-weight="700">
                SECOND
            </text>
        </g>
        <g transform="translate(440.194 -18.663)">
            <text id="R1C6_t_extra" x="116" y="175.01" font-family="'SourceCodePro-Bold','Source Code Pro',monospace" font-size="10" font-weight="700">
                EXTRA
            </text>
        </g>
        <g transform="translate(157.048 -68.15)">
            <text id="R0C3_t_secondary" x="116" y="175.01" font-family="'SourceCodePro-Bold','Source Code Pro',monospace" font-size="10" font-weight="700">
                SECOND
            </text>
        </g>
        <g transform="translate(157.048 -94.734)">
            <text id="R0C3_t_extra" x="116" y="175.01" font-family="'SourceCodePro-Bold','Source Code Pro',monospace" font-size="10" font-weight="700">
                EXTRA
            </text>
        </g>
        <g transform="translate(157.048 -11.386)">
            <text id="R1C3_t_secondary" x="116" y="175.01" font-family="'SourceCodePro-Bold','Source Code Pro',monospace" font-size="10" font-weight="700">
                SECOND
            </text>
        </g>
        <g transform="translate(157.048 -37.97)">
            <text id="R1C3_t_extra" x="116" y="175.01" font-family="'SourceCodePro-Bold','Source Code Pro',monospace" font-size="10" font-weight="700">
                EXTRA
            </text>
        </g>
        <g transform="translate(157.048 39.377)">
            <text id="R2C3_t_secondary" x="116" y="175.01" font-family="'SourceCodePro-Bold','Source Code Pro',monospace" font-size="10" font-weight="700">
                SECOND
            </text>
        </g>
        <g transform="translate(157.048 12.793)">
            <text id="R2C3_t_extra" x="116" y="175.01" font-family="'SourceCodePro-Bold','Source Code Pro',monospace" font-size="10" font-weight="700">
                EXTRA
            </text>
        </g>
        <g transform="translate(214.906 -52.527)">
            <text id="R0C4_t_secondary" x="116" y="175.01" font-family="'SourceCodePro-Bold','Source Code Pro',monospace" font-size="10" font-weight="700">
                SECOND
            </text>
        </g>
        <g transform="translate(214.906 -79.112)">
            <text id="R0C4_t_extra" x="116" y="175.01" font-family="'SourceCodePro-Bold','Source Code Pro',monospace" font-size="10" font-weight="700">
                EXTRA
            </text>
        </g>
        <g transform="translate(214.906 1.236)">
            <text id="R1C4_t_secondary" x="116" y="175.01" font-family="'SourceCodePro-Bold','Source Code Pro',monospace" font-size="10" font-weight="700">
                SECOND
            </text>
        </g>
        <g transform="translate(214.906 -25.348)">
            <text id="R1C4_t_extra" x="116" y="175.01" font-family="'SourceCodePro-Bold','Source Code Pro',monospace" font-size="10" font-weight="700">
                EXTRA
            </text>
        </g>
        <g transform="translate(214.906 55)">
            <text id="R2C4_t_secondary" x="116" y="175.01" font-family="'SourceCodePro-Bold','Source Code Pro',monospace" font-size="10" font-weight="700">
                SECOND
            </text>
        </g>
        <g transform="translate(214.906 28.416)">
            <text id="R2C4_t_extra" x="116" y="175.01" font-family="'SourceCodePro-Bold','Source Code Pro',monospace" font-size="10" font-weight="700">
                EXTRA
            </text>
        </g>
        <g transform="translate(99.19 -83.112)">
            <text id="R0C2_t_secondary" x="116" y="175.01" font-family="'SourceCodePro-Bold','Source Code Pro',monospace" font-size="10" font-weight="700">
                EXTRA
            </text>
        </g>
        <g transform="translate(99.19 -56.527)">
            <text id="R0C2_t_extra" x="116" y="175.01" font-family="'SourceCodePro-Bold','Source Code Pro',monospace" font-size="10" font-weight="700">
                SECOND
            </text>
        </g>
        <g transform="translate(99.19 -2.764)">
            <text id="R1C2_t_secondary" x="116" y="175.01" font-family="'SourceCodePro-Bold','Source Code Pro',monospace" font-size="10" font-weight="700">
                SECOND
            </text>
        </g>
        <g transform="translate(99.19 -29.348)">
            <text id="R1C2_t_extra" x="116" y="175.01" font-family="'SourceCodePro-Bold','Source Code Pro',monospace" font-size="10" font-weight="700">
                EXTRA
            </text>
        </g>
        <g transform="translate(99.19 51)">
            <text id="R2C2_t_secondary" x="116" y="175.01" font-family="'SourceCodePro-Bold','Source Code Pro',monospace" font-size="10" font-weight="700">
                SECOND
            </text>
        </g>
        <g transform="translate(99.19 24.415)">
            <text id="R2C2_t_extra" x="116" y="175.01" font-family="'SourceCodePro-Bold','Source Code Pro',monospace" font-size="10" font-weight="700">
                EXTRA
            </text>
        </g>
        <g transform="translate(-16.527 34.447)">
            <text id="R2C0_t_secondary" x="116" y="175.01" font-family="'SourceCodePro-Bold','Source Code Pro',monospace" font-size="10" font-weight="700">
                SECOND
            </text>
        </g>
        <g transform="translate(-16.527 7.863)">
            <text id="R2C0_t_extra" x="116" y="175.01" font-family="'SourceCodePro-Bold','Source Code Pro',monospace" font-size="10" font-weight="700">
                EXTRA
            </text>
        </g>
        <g transform="translate(41.332 2.44)">
            <text id="R1C1_t_secondary" x="116" y="175.01" font-family="'SourceCodePro-Bold','Source Code Pro',monospace" font-size="10" font-weight="700">
                SECOND
            </text>
        </g>
        <g transform="translate(41.332 -24.145)">
            <text id="R1C1_t_extra" x="116" y="175.01" font-family="'SourceCodePro-Bold','Source Code Pro',monospace" font-size="10" font-weight="700">
                EXTRA
            </text>
        </g>
        <g transform="translate(41.331 55.295)">
            <text id="R2C1_t_secondary" x="116" y="175.01" font-family="'SourceCodePro-Bold','Source Code Pro',monospace" font-size="10" font-weight="700">
                SECOND
            </text>
        </g>
        <g transform="translate(41.331 28.71)">
            <text id="R2C1_t_extra" x="116" y="175.01" font-family="'SourceCodePro-Bold','Source Code Pro',monospace" font-size="10" font-weight="700">
                EXTRA
            </text>
        </g>
        <g transform="translate(272.764 -45.297)">
            <text id="R0C5_t_secondary" x="116" y="175.01" font-family="'SourceCodePro-Bold','Source Code Pro',monospace" font-size="10" font-weight="700">
                SECOND
            </text>
        </g>
        <g transform="translate(272.764 -71.882)">
            <text id="R0C5_t_extra" x="116" y="175.01" font-family="'SourceCodePro-Bold','Source Code Pro',monospace" font-size="10" font-weight="700">
                EXTRA
            </text>
        </g>
        <g transform="translate(272.764 8.467)">
            <text id="R1C5_t_secondary" x="116" y="175.01" font-family="'SourceCodePro-Bold','Source Code Pro',monospace" font-size="10" font-weight="700">
                SECOND
            </text>
        </g>
        <g transform="translate(272.764 -18.118)">
            <text id="R1C5_t_extra" x="116" y="175.01" font-family="'SourceCodePro-Bold','Source Code Pro',monospace" font-size="10" font-weight="700">
                EXTRA
            </text>
        </g>
        <g transform="translate(553.635 144.985)">
            <text id="R4C5_t_secondary" x="116" y="175.01" font-family="'SourceCodePro-Bold','Source Code Pro',monospace" font-size="10" font-weight="700">
                SECOND
            </text>
        </g>
        <g transform="translate(553.635 118.4)">
            <text id="R4C5_t_extra" x="116" y="175.01" font-family="'SourceCodePro-Bold','Source Code Pro',monospace" font-size="10" font-weight="700">
                EXTRA
            </text>
        </g>
        <g transform="translate(599.122 190.498)">
            <text id="R4C6_t_secondary" x="116" y="175.01" font-family="'SourceCodePro-Bold','Source Code Pro',monospace" font-size="10" font-weight="700">
                SECOND
            </text>
        </g>
        <g transform="translate(599.122 163.913)">
            <text id="R4C6_t_extra" x="116" y="175.01" font-family="'SourceCodePro-Bold','Source Code Pro',monospace" font-size="10" font-weight="700">
                EXTRA
            </text>
        </g>
        <g transform="translate(508.123 190.498)">
            <text id="R4C4_t_secondary" x="116" y="175.01" font-family="'SourceCodePro-Bold','Source Code Pro',monospace" font-size="10" font-weight="700">
                SECOND
            </text>
        </g>
        <g transform="translate(508.123 163.913)">
            <text id="R4C4_t_extra" x="116" y="175.01" font-family="'SourceCodePro-Bold','Source Code Pro',monospace" font-size="10" font-weight="700">
                EXTRA
            </text>
        </g>
        <g transform="translate(553.635 236.011)">
            <text id="R4C7_t_secondary" x="116" y="175.01" font-family="'SourceCodePro-Bold','Source Code Pro',monospace" font-size="10" font-weight="700">
                SECOND
            </text>
        </g>
        <g transform="translate(553.635 209.426)">
            <text id="R4C7_t_extra" x="116" y="175.01" font-family="'SourceCodePro-Bold','Source Code Pro',monospace" font-size="10" font-weight="700">
                EXTRA
            </text>
        </g>
        <g transform="translate(432.611 73.96)">
            <text id="R3C5_t_secondary" x="116" y="175.01" font-family="'SourceCodePro-Bold','Source Code Pro',monospace" font-size="10" font-weight="700">
                SECOND
            </text>
        </g>
        <g transform="translate(432.611 47.374)">
            <text id="R3C5_t_extra" x="116" y="175.01" font-family="'SourceCodePro-Bold','Source Code Pro',monospace" font-size="10" font-weight="700">
                EXTRA
            </text>
        </g>
        <g transform="translate(159.134 144.985)">
            <text id="R4C1_t_secondary" x="116" y="175.01" font-family="'SourceCodePro-Bold','Source Code Pro',monospace" font-size="10" font-weight="700">
                SECOND
            </text>
        </g>
        <g transform="translate(159.134 118.4)">
            <text id="R4C1_t_extra" x="116" y="175.01" font-family="'SourceCodePro-Bold','Source Code Pro',monospace" font-size="10" font-weight="700">
                EXTRA
            </text>
        </g>
        <g transform="translate(280.347 73.96)">
            <text id="R3C1_t_secondary" x="116" y="175.01" font-family="'SourceCodePro-Bold','Source Code Pro',monospace" font-size="10" font-weight="700">
                SECOND
            </text>
        </g>
        <g transform="translate(280.347 47.374)">
            <text id="R3C1_t_extra" x="116" y="175.01" font-family="'SourceCodePro-Bold','Source Code Pro',monospace" font-size="10" font-weight="700">
                EXTRA
            </text>
        </g>
        <g transform="translate(477.926 119.472)">
            <text id="R3C6_t_secondary" x="116" y="175.01" font-family="'SourceCodePro-Bold','Source Code Pro',monospace" font-size="10" font-weight="700">
                SECOND
            </text>
        </g>
        <g transform="translate(477.926 92.888)">
            <text id="R3C6_t_extra" x="116" y="175.01" font-family="'SourceCodePro-Bold','Source Code Pro',monospace" font-size="10" font-weight="700">
                EXTRA
            </text>
        </g>
        <g transform="translate(204.241 190.498)">
            <text id="R4C2_t_secondary" x="116" y="175.01" font-family="'SourceCodePro-Bold','Source Code Pro',monospace" font-size="10" font-weight="700">
                SECOND
            </text>
        </g>
        <g transform="translate(204.241 163.913)">
            <text id="R4C2_t_extra" x="116" y="175.01" font-family="'SourceCodePro-Bold','Source Code Pro',monospace" font-size="10" font-weight="700">
                EXTRA
            </text>
        </g>
        <g transform="translate(325.859 119.472)">
            <text id="R3C2_t_secondary" x="116" y="175.01" font-family="'SourceCodePro-Bold','Source Code Pro',monospace" font-size="10" font-weight="700">
                SECOND
            </text>
        </g>
        <g transform="translate(325.859 92.888)">
            <text id="R3C2_t_extra" x="116" y="175.01" font-family="'SourceCodePro-Bold','Source Code Pro',monospace" font-size="10" font-weight="700">
                EXTRA
            </text>
        </g>
        <g transform="translate(387.099 119.472)">
            <text id="R3C4_t_secondary" x="116" y="175.01" font-family="'SourceCodePro-Bold','Source Code Pro',monospace" font-size="10" font-weight="700">
                SECOND
            </text>
        </g>
        <g transform="translate(387.099 92.888)">
            <text id="R3C4_t_extra" x="116" y="175.01" font-family="'SourceCodePro-Bold','Source Code Pro',monospace" font-size="10" font-weight="700">
                EXTRA
            </text>
        </g>
        <g transform="translate(113.811 190.498)">
            <text id="R4C0_t_secondary" x="116" y="175.01" font-family="'SourceCodePro-Bold','Source Code Pro',monospace" font-size="10" font-weight="700">
                SECOND
            </text>
        </g>
        <g transform="translate(113.811 163.913)">
            <text id="R4C0_t_extra" x="116" y="175.01" font-family="'SourceCodePro-Bold','Source Code Pro',monospace" font-size="10" font-weight="700">
                EXTRA
            </text>
        </g>
        <g transform="translate(234.835 119.472)">
            <text id="R3C0_t_secondary" x="116" y="175.01" font-family="'SourceCodePro-Bold','Source Code Pro',monospace" font-size="10" font-weight="700">
                SECOND
            </text>
        </g>
        <g transform="translate(234.835 92.888)">
            <text id="R3C0_t_extra" x="116" y="175.01" font-family="'SourceCodePro-Bold','Source Code Pro',monospace" font-size="10" font-weight="700">
                EXTRA
            </text>
        </g>
        <g transform="translate(432.611 164.985)">
            <text id="R3C7_t_secondary" x="116" y="175.01" font-family="'SourceCodePro-Bold','Source Code Pro',monospace" font-size="10" font-weight="700">
                SECOND
            </text>
        </g>
        <g transform="translate(432.611 138.4)">
            <text id="R3C7_t_extra" x="116" y="175.01" font-family="'SourceCodePro-Bold','Source Code Pro',monospace" font-size="10" font-weight="700">
                EXTRA
            </text>
        </g>
        <g transform="translate(159.323 236.011)">
            <text id="R4C3_t_secondary" x="116" y="175.01" font-family="'SourceCodePro-Bold','Source Code Pro',monospace" font-size="10" font-weight="700">
                SECOND
            </text>
        </g>
        <g transform="translate(159.323 209.426)">
            <text id="R4C3_t_extra" x="116" y="175.01" font-family="'SourceCodePro-Bold','Source Code Pro',monospace" font-size="10" font-weight="700">
                EXTRA
            </text>
        </g>
        <g transform="translate(280.347 138.4)">
            <text id="R3C3_t_extra" x="116" y="175.01" font-family="'SourceCodePro-Bold','Source Code Pro',monospace" font-size="10" font-weight="700">
                EXTRA
            </text>
        </g>
        <g transform="translate(280.347 164.985)">
            <text id="R3C3_t_secondary" x="116" y="175.01" font-family="'SourceCodePro-Bold','Source Code Pro',monospace" font-size="10" font-weight="700">
                SECOND
            </text>
        </g>
    </g>
</svg>
