<svg xmlns="http://www.w3.org/2000/svg" width="2048" height="1280" viewBox="0 0 2048 1280">
    <path fill-rule="evenodd" clip-rule="evenodd" fill="#FFF" d="M1007.605 325.902a100.198 100.198 0 0 0-42.152-81.679C756.617 95.805 498.453 34 245.066 71.766a68.546 68.546 0 0 0-53.312 41.781 1178.883 1178.883 0 0 0-86.051 374.875 522.077 522.077 0 0 0 11.004 143.519 902.371 902.371 0 0 0 13.449 53.684 200.334 200.334 0 0 1-6.687 128.84 3173.63 3173.63 0 0 0-49.215 131.738 258.258 258.258 0 0 0-14.371 81.594 693.619 693.619 0 0 0 0 18.918c1.222 93.25 75.734 168.953 168.929 171.637 8.102.234 16.204.434 24.301.598a574.636 574.636 0 0 0 132.871-12.812 3058.589 3058.589 0 0 0 264.418-69.586 1058.884 1058.884 0 0 1 145.172-34.23 5231.597 5231.597 0 0 0 84.438-14.43 310.889 310.889 0 0 0 99.676-36.258 55.393 55.393 0 0 0 27.921-48.102v-677.63h-.004z"/>
    <path fill="none" stroke="#000" stroke-width=".8" d="M1007.605 325.902a100.198 100.198 0 0 0-42.152-81.679C756.617 95.805 498.453 34 245.066 71.766a68.546 68.546 0 0 0-53.312 41.781 1178.883 1178.883 0 0 0-86.051 374.875 522.077 522.077 0 0 0 11.004 143.519 902.371 902.371 0 0 0 13.449 53.684 200.334 200.334 0 0 1-6.687 128.84 3173.63 3173.63 0 0 0-49.215 131.738 258.258 258.258 0 0 0-14.371 81.594 693.619 693.619 0 0 0 0 18.918c1.222 93.25 75.734 168.953 168.929 171.637 8.102.234 16.204.434 24.301.598a574.636 574.636 0 0 0 132.871-12.812 3058.589 3058.589 0 0 0 264.418-69.586 1058.884 1058.884 0 0 1 145.172-34.23 5231.597 5231.597 0 0 0 84.438-14.43 310.889 310.889 0 0 0 99.676-36.258 55.393 55.393 0 0 0 27.921-48.102v-677.63h-.004z"/>
    <path opacity=".392" fill-rule="evenodd" clip-rule="evenodd" fill="#FFF" d="M831.574 933.309l81.348-39.164a15.8 15.8 0 0 0 8.16-9.305 15.807 15.807 0 0 0-1.039-12.332 737.409 737.409 0 0 0-77.762-118.117 26.36 26.36 0 0 1-4.785-23.895l97.328-334.945a84.355 84.355 0 0 0-20.367-82.18 398.832 398.832 0 0 0-132.953-90.746A1107.997 1107.997 0 0 0 336.59 137.16a463.797 463.797 0 0 0-55.828 4.281c-23.133 3.184-42.625 18.864-50.703 40.778a1348.335 1348.335 0 0 0-67.664 262.09 775.08 775.08 0 0 0-7.926 77.453c-1.168 22.527 12.121 43.3 33.058 51.676 21.356 8.539 39.739 12.589 55.918 14.992 22.434 3.332 45.707 4.218 58.004 4.523 53.75 1.332 79.985-5.488 115.117-12.051 17.965-3.355 46.063-8.148 77.731-7.711 22.359.309 65.656 3.489 120.746 27.395a15.818 15.818 0 0 1 8.105 21.043l-34.355 75.727c-3.582 7.898-.137 17.207 7.723 20.871a454.052 454.052 0 0 1 214.074 207.93c3.871 7.71 13.211 10.894 20.984 7.152z"/>
    <path fill="none" stroke="#000" stroke-width=".8" d="M831.574 933.309l81.348-39.164a15.8 15.8 0 0 0 8.16-9.305 15.807 15.807 0 0 0-1.039-12.332 737.409 737.409 0 0 0-77.762-118.117 26.36 26.36 0 0 1-4.785-23.895l97.328-334.945a84.355 84.355 0 0 0-20.367-82.18 398.832 398.832 0 0 0-132.953-90.746A1107.997 1107.997 0 0 0 336.59 137.16a463.797 463.797 0 0 0-55.828 4.281c-23.133 3.184-42.625 18.864-50.703 40.778a1348.335 1348.335 0 0 0-67.664 262.09 775.08 775.08 0 0 0-7.926 77.453c-1.168 22.527 12.121 43.3 33.058 51.676 21.356 8.539 39.739 12.589 55.918 14.992 22.434 3.332 45.707 4.218 58.004 4.523 53.75 1.332 79.985-5.488 115.117-12.051 17.965-3.355 46.063-8.148 77.731-7.711 22.359.309 65.656 3.489 120.746 27.395a15.818 15.818 0 0 1 8.105 21.043l-34.355 75.727c-3.582 7.898-.137 17.207 7.723 20.871a454.052 454.052 0 0 1 214.074 207.93c3.871 7.71 13.211 10.894 20.984 7.152z"/>
    <path opacity=".392" fill="#FFF" d="M674.754 889.48c27.68 27.684 21.473 78.77-13.867 114.109-35.336 35.34-86.426 41.547-114.106 13.863-27.683-27.68-21.476-78.766 13.864-114.105 35.339-35.339 86.425-41.546 114.109-13.867z"/>
    <path fill="none" stroke="#000" stroke-width=".8" stroke-linecap="round" d="M674.754 889.48c27.68 27.684 21.472 78.77-13.868 114.109-35.335 35.339-86.425 41.547-114.104 13.863-27.683-27.679-21.476-78.767 13.863-114.105 35.339-35.339 86.426-41.546 114.109-13.867z"/>
    <path fill-rule="evenodd" clip-rule="evenodd" fill="#FFF" d="M1040.402 325.902a100.198 100.198 0 0 1 42.152-81.679C1291.39 95.805 1549.554 34 1802.941 71.766a68.555 68.555 0 0 1 53.316 41.781 1178.985 1178.985 0 0 1 86.047 374.875 522.038 522.038 0 0 1-11.004 143.519 905.443 905.443 0 0 1-13.445 53.684 200.307 200.307 0 0 0 6.684 128.84 3167.981 3167.981 0 0 1 49.219 131.738 258.484 258.484 0 0 1 14.371 81.594 727.45 727.45 0 0 1 0 18.918c-1.227 93.25-75.734 168.953-168.934 171.637-8.098.234-16.199.434-24.301.598a574.662 574.662 0 0 1-132.871-12.812 3058.684 3058.684 0 0 1-264.418-69.586 1058.676 1058.676 0 0 0-145.172-34.23 5231.116 5231.116 0 0 1-84.434-14.43 310.911 310.911 0 0 1-98.504-35.586c-.391-.223-.785-.445-1.176-.672a55.392 55.392 0 0 1-27.922-48.102v-677.63h.005z"/>
    <path fill="none" stroke="#000" stroke-width=".8" d="M1040.402 325.902a100.198 100.198 0 0 1 42.152-81.679C1291.39 95.805 1549.554 34 1802.941 71.766a68.555 68.555 0 0 1 53.316 41.781 1178.985 1178.985 0 0 1 86.047 374.875 522.038 522.038 0 0 1-11.004 143.519 905.443 905.443 0 0 1-13.445 53.684 200.307 200.307 0 0 0 6.684 128.84 3167.981 3167.981 0 0 1 49.219 131.738 258.484 258.484 0 0 1 14.371 81.594 727.45 727.45 0 0 1 0 18.918c-1.227 93.25-75.734 168.953-168.934 171.637-8.098.234-16.199.434-24.301.598a574.662 574.662 0 0 1-132.871-12.812 3058.684 3058.684 0 0 1-264.418-69.586 1058.676 1058.676 0 0 0-145.172-34.23 5231.116 5231.116 0 0 1-84.434-14.43 310.911 310.911 0 0 1-98.504-35.586c-.391-.223-.785-.445-1.176-.672a55.392 55.392 0 0 1-27.922-48.102v-677.63h.005z"/>
    <path opacity=".392" fill-rule="evenodd" clip-rule="evenodd" fill="#FFF" d="M1216.434 933.309l-81.348-39.164a15.812 15.812 0 0 1-7.121-21.637 737.409 737.409 0 0 1 77.762-118.117 26.36 26.36 0 0 0 4.785-23.895l-97.328-334.945a84.357 84.357 0 0 1 20.367-82.18 398.848 398.848 0 0 1 132.957-90.746 1107.965 1107.965 0 0 1 444.91-85.465c18.68.301 37.32 1.731 55.828 4.281a63.237 63.237 0 0 1 50.707 40.778 1348.908 1348.908 0 0 1 67.664 262.09 777.746 777.746 0 0 1 7.926 77.453c1.168 22.527-12.125 43.3-33.062 51.676-21.352 8.539-39.738 12.589-55.918 14.992-22.434 3.332-45.707 4.218-58.004 4.523-53.746 1.332-79.984-5.488-115.117-12.051-17.965-3.355-46.062-8.148-77.73-7.711-22.359.309-65.652 3.489-120.742 27.395a15.802 15.802 0 0 0-8.461 8.824 15.795 15.795 0 0 0 .355 12.219l34.352 75.727c3.586 7.898.141 17.207-7.719 20.871a454.056 454.056 0 0 0-214.078 207.93c-3.872 7.71-13.212 10.894-20.985 7.152z"/>
    <path fill="none" stroke="#000" stroke-width=".8" d="M1216.434 933.309l-81.348-39.164a15.812 15.812 0 0 1-7.121-21.637 737.409 737.409 0 0 1 77.762-118.117 26.36 26.36 0 0 0 4.785-23.895l-97.328-334.945a84.358 84.358 0 0 1 20.367-82.18 398.848 398.848 0 0 1 132.957-90.746 1107.965 1107.965 0 0 1 444.91-85.465c18.68.301 37.32 1.731 55.828 4.281a63.237 63.237 0 0 1 50.707 40.778 1348.908 1348.908 0 0 1 67.664 262.09 777.746 777.746 0 0 1 7.926 77.453c1.168 22.527-12.125 43.3-33.062 51.676-21.352 8.539-39.738 12.589-55.918 14.992-22.434 3.332-45.707 4.218-58.004 4.523-53.746 1.332-79.984-5.488-115.117-12.051-17.965-3.355-46.062-8.148-77.73-7.711-22.359.309-65.652 3.489-120.742 27.395a15.802 15.802 0 0 0-8.461 8.824 15.795 15.795 0 0 0 .355 12.219l34.352 75.727c3.586 7.898.141 17.207-7.719 20.871a454.056 454.056 0 0 0-214.078 207.93c-3.872 7.71-13.212 10.894-20.985 7.152z"/>
    <ellipse transform="rotate(-134.999 1437.259 953.466)" opacity=".392" fill="#FFF" cx="1437.242" cy="953.467" rx="90.492" ry="70.883"/>
    <path fill="none" stroke="#000" stroke-width=".8" stroke-linecap="round" d="M1373.254 889.48c-27.68 27.684-21.472 78.77 13.867 114.108 35.34 35.34 86.426 41.548 114.11 13.864 27.679-27.679 21.472-78.767-13.868-114.106-35.34-35.338-86.425-41.545-114.109-13.866z"/>

    <!-- Keys start here -->


    <!-- Left half -->


    <!-- R3C6 -->
    <ellipse id="R3C6_F" transform="rotate(-45.001 610.757 953.48)" fill="#FFF" cx="610.765" cy="953.469" rx="75.6" ry="56"/>
    <ellipse id="R3C6_S" transform="rotate(-45.001 610.757 953.48)" fill="none" stroke="#000" stroke-width=".8" stroke-linecap="round" cx="610.765" cy="953.469" rx="75.6" ry="56.001"/>

    <!-- R2C0 -->
    <path id="R2C0_F" fill="#FFF" d="M198.383 366.844l79.738 15.578c4.59.894 6.477 3.23 5.582 7.816l-12.168 62.312c-.894 4.59-3.558 5.676-8.144 4.777l-78.633-15.359c-4.586-.895-7.051-.949-6.192-5.543l12.094-64.442c.86-4.592 3.133-6.034 7.723-5.139z"/>
    <path id="R2C0_S" fill="none" stroke="#000" stroke-width=".8" stroke-linecap="round" d="M198.383 366.844l79.738 15.578c4.59.894 6.477 3.23 5.582 7.816l-12.168 62.312c-.894 4.59-3.558 5.676-8.144 4.777l-78.633-15.359c-4.586-.895-7.051-.949-6.192-5.543l12.094-64.442c.86-4.592 3.133-6.034 7.723-5.139z"/>

    <!-- R1C0 -->
    <path id="R1C0_F" fill="#FFF" d="M221.246 274.598l74.477 14.547c4.589.894 7.062 3.363 6.164 7.949l-12.16 62.285c-.895 4.59-2.321 6.059-6.911 5.16l-80.421-15.707c-4.59-.898-5.907-2.918-4.7-7.437l16.547-61.961c1.203-4.516 2.414-5.735 7.004-4.836z"/> <path id="R1C0_S" fill="none" stroke="#000" stroke-width=".8" stroke-linecap="round" d="M221.246 274.598l74.477 14.547c4.589.894 7.062 3.363 6.164 7.949l-12.16 62.285c-.895 4.59-2.321 6.059-6.911 5.16l-80.421-15.707c-4.59-.898-5.907-2.918-4.7-7.437l16.547-61.961c1.203-4.516 2.414-5.735 7.004-4.836z"/>

    <!-- R1C1 -->
    <path id="R1C1_F" fill="#FFF" d="M327.68 295.387l73.496 14.355c4.59.899 5.84 2.371 4.824 6.934l-13.852 62.375c-1.015 4.562-2.503 6.355-7.093 5.461l-72.832-14.227c-4.59-.898-5.368-2.379-4.473-6.965l12.383-63.41c.894-4.59 2.957-5.422 7.547-4.523z"/>
    <path id="R1C1_S" fill="none" stroke="#000" stroke-width=".8" stroke-linecap="round" d="M327.68 295.387l73.496 14.355c4.59.899 5.84 2.371 4.824 6.934l-13.852 62.375c-1.015 4.562-2.503 6.355-7.093 5.461l-72.832-14.227c-4.59-.898-5.368-2.379-4.473-6.965l12.383-63.41c.894-4.59 2.957-5.422 7.547-4.523z"/>

    <!-- R2C1 -->
    <path id="R2C1_F" fill="#FFF" d="M309.184 388.488l71.714 14.008c4.586.895 5.567 2.137 4.551 6.699l-13.902 62.586c-1.012 4.562-2.051 6.274-6.641 5.375l-71.015-13.871c-4.59-.894-5.161-2.543-4.262-7.133l12.379-63.41c.894-4.586 2.586-5.152 7.176-4.254z"/>
    <path id="R2C1_S" fill="none" stroke="#000" stroke-width=".8" stroke-linecap="round" d="M309.184 388.488l71.714 14.008c4.586.895 5.567 2.137 4.551 6.699l-13.902 62.586c-1.012 4.562-2.051 6.274-6.641 5.375l-71.015-13.871c-4.59-.894-5.161-2.543-4.262-7.133l12.379-63.41c.894-4.586 2.586-5.152 7.176-4.254z"/>

    <!-- R3C0 -->
    <path id="R3C0_F" fill="#FFF" d="M182.094 460.289l78.804 15.809c4.582.918 5.438 2.109 4.551 6.699l-16.332 84.59c-.887 4.59-1.695 5.984-7.519 5.328-28.293-4.344-56.141-11.207-65.52-27.461-11.379-17.524-1.441-80.922-1.441-80.922-.082-4.676 2.871-4.961 7.457-4.043z"/>
    <path id="R3C0_S" fill="none" stroke="#000" stroke-width=".8" stroke-linecap="round" d="M182.094 460.289l78.804 15.809c4.582.918 5.438 2.109 4.551 6.699l-16.332 84.59c-.887 4.59-1.695 5.984-7.519 5.328-28.293-4.344-56.141-11.207-65.52-27.461-11.379-17.524-1.441-80.922-1.441-80.922-.082-4.676 2.871-4.961 7.457-4.043z"/>

    <!-- R2C2 -->
    <path id="R2C2_F" fill="#FFF" d="M422.055 358.395l74.019 18.593c4.535 1.141 4.891 2.379 3.715 6.903l-16.301 62.746c-1.176 4.527-1.593 5.609-6.129 4.472l-72.23-18.105c-4.535-1.137-5.567-2.692-4.547-7.254l14.27-64.02c1.015-4.562 2.671-4.476 7.203-3.335z"/>
    <path id="R2C2_S" fill="none" stroke="#000" stroke-width=".8" stroke-linecap="round" d="M422.055 358.395l74.019 18.593c4.535 1.141 4.891 2.379 3.715 6.903l-16.301 62.746c-1.176 4.527-1.593 5.609-6.129 4.472l-72.23-18.105c-4.535-1.137-5.567-2.692-4.547-7.254l14.27-64.02c1.015-4.562 2.671-4.476 7.203-3.335z"/>

    <!-- R2C3 -->
    <path id="R2C3_F" fill="#FFF" d="M529.906 361.332l72.297 19.457c4.516 1.215 4.918 2.516 3.66 7.02l-17.504 62.847c-1.254 4.504-2.226 4.992-6.742 3.778l-70.98-19.114c-4.512-1.215-4.614-2.074-3.438-6.601l16.481-63.418c1.175-4.528 1.711-5.184 6.226-3.969z"/>
    <path id="R2C3_S" fill="none" stroke="#000" stroke-width=".8" stroke-linecap="round" d="M529.906 361.332l72.297 19.457c4.516 1.215 4.918 2.516 3.66 7.02l-17.504 62.847c-1.254 4.504-2.226 4.992-6.742 3.778l-70.98-19.114c-4.512-1.215-4.614-2.074-3.438-6.601l16.481-63.418c1.175-4.528 1.711-5.184 6.226-3.969z"/>

    <!-- R1C2 -->
    <path id="R1C2_F" fill="#FFF" d="M442.543 265.715l76.68 19.223c4.535 1.136 5.406 3.359 4.23 7.886l-16.176 62.25c-1.175 4.528-3.203 4.903-7.738 3.762l-74.441-18.703c-4.536-1.137-4.946-2.192-3.926-6.754l14.215-63.774c1.015-4.562 2.621-5.027 7.156-3.89z"/>
    <path id="R1C2_S" fill="none" stroke="#000" stroke-width=".8" stroke-linecap="round" d="M442.543 265.715l76.68 19.223c4.535 1.136 5.406 3.359 4.23 7.886l-16.176 62.25c-1.175 4.528-3.203 4.903-7.738 3.762l-74.441-18.703c-4.536-1.137-4.946-2.192-3.926-6.754l14.215-63.774c1.015-4.562 2.621-5.027 7.156-3.89z"/>

    <!-- R1C3  -->
    <path id="R1C3_F" fill="#FFF" d="M554.5 269.668l72.484 19.523c4.516 1.219 5.516 2.993 4.262 7.497l-17.434 62.585c-1.253 4.504-2.66 4.821-7.175 3.606L535 343.598c-4.516-1.215-5.145-2.063-3.969-6.586l16.571-63.774c1.175-4.523 2.382-4.789 6.898-3.57z"/>
    <path id="R1C3_S" fill="none" stroke="#000" stroke-width=".8" stroke-linecap="round" d="M554.5 269.668l72.484 19.523c4.516 1.219 5.516 2.993 4.262 7.497l-17.434 62.585c-1.253 4.504-2.66 4.821-7.175 3.606L535 343.598c-4.516-1.215-5.145-2.063-3.969-6.586l16.571-63.774c1.175-4.523 2.382-4.789 6.898-3.57z"/>

    <!-- R1C4 -->
    <path id="R1C4_F" fill="#FFF" d="M654.457 304.07L724 323.453c4.504 1.254 5.719 2.895 4.426 7.387l-17.813 61.851c-1.293 4.497-3.23 5.379-7.722 4.086l-69.481-20.019c-4.492-1.297-4.652-2.403-3.394-6.906l17.343-62.278c1.258-4.504 2.594-4.758 7.098-3.504z"/>
    <path id="R1C4_S" fill="none" stroke="#000" stroke-width=".8" stroke-linecap="round" d="M654.457 304.07L724 323.453c4.504 1.254 5.719 2.895 4.426 7.387l-17.813 61.851c-1.293 4.497-3.23 5.379-7.722 4.086l-69.481-20.019c-4.492-1.297-4.652-2.403-3.394-6.906l17.343-62.278c1.258-4.504 2.594-4.758 7.098-3.504z"/>

    <!-- R2C4 -->
    <path id="R2C4_F" fill="#FFF" d="M629.953 394.961l68.445 19.691c4.497 1.293 5.122 2.676 3.825 7.168l-17.887 62.121c-1.293 4.493-2.547 5.321-7.043 4.036l-68.594-19.602c-4.496-1.285-5.328-2.875-4.074-7.379l17.551-63.012c1.258-4.504 3.281-4.316 7.777-3.023z"/>
    <path id="R2C4_S" fill="none" stroke="#000" stroke-width=".8" stroke-linecap="round" d="M629.953 394.961l68.445 19.691c4.497 1.293 5.122 2.676 3.825 7.168l-17.887 62.121c-1.293 4.493-2.547 5.321-7.043 4.036l-68.594-19.602c-4.496-1.285-5.328-2.875-4.074-7.379l17.551-63.012c1.258-4.504 3.281-4.316 7.777-3.023z"/>

    <!-- R2C5 -->
    <path id="R2C5_F" fill="#FFF" d="M721.902 443.398l66.547 19.172c4.496 1.297 5.414 2.864 4.117 7.356l-18.039 62.652c-1.297 4.492-2.726 4.731-7.218 3.434l-67.012-19.309c-4.496-1.293-5.289-3.164-3.996-7.656l17.972-62.41c1.293-4.496 3.137-4.532 7.629-3.239z"/>
    <path id="R2C5_S" fill="none" stroke="#000" stroke-width=".8" stroke-linecap="round" d="M721.902 443.398l66.547 19.172c4.496 1.297 5.414 2.864 4.117 7.356l-18.039 62.652c-1.297 4.492-2.726 4.731-7.218 3.434l-67.012-19.309c-4.496-1.293-5.289-3.164-3.996-7.656l17.972-62.41c1.293-4.496 3.137-4.532 7.629-3.239z"/>

    <!-- R1C5 -->
    <path id="R1C5_F" fill="#FFF" d="M748.098 352.199l66.547 19.172c4.492 1.297 5.476 2.879 4.179 7.375l-17.937 62.293c-1.293 4.492-2.985 5.055-7.481 3.762l-67.234-19.371c-4.492-1.297-4.762-3.582-3.465-8.075L740.52 355.5c1.292-4.492 3.082-4.594 7.578-3.301z"/>
    <path id="R1C5_S" fill="none" stroke="#000" stroke-width=".8" stroke-linecap="round" d="M748.098 352.199l66.547 19.172c4.492 1.297 5.476 2.879 4.179 7.375l-17.937 62.293c-1.293 4.492-2.985 5.055-7.481 3.762l-67.234-19.371c-4.492-1.297-4.762-3.582-3.465-8.075L740.52 355.5c1.292-4.492 3.082-4.594 7.578-3.301z"/>

    <!-- R0C5 -->
    <path id="R0C5_F" fill="#FFF" d="M780.699 239.906s41.793 19.938 61.348 33.649c3 2.097 5.437 5.675 4.144 10.168l-18.695 64.914c-1.293 4.496-3.25 6.304-7.742 5.008l-67.234-19.372c-4.493-1.293-4.997-3.093-3.704-7.585l23.883-82.934c1.293-4.492 3.903-6.098 8-3.848z"/>
    <path id="R0C5_S" fill="none" stroke="#000" stroke-width=".8" stroke-linecap="round" d="M780.699 239.906s41.793 19.938 61.348 33.649c3 2.097 5.437 5.675 4.144 10.168l-18.695 64.914c-1.293 4.496-3.25 6.304-7.742 5.008l-67.234-19.372c-4.493-1.293-4.997-3.093-3.704-7.585l23.883-82.934c1.293-4.492 3.903-6.098 8-3.848z"/>

    <!-- R0C4 -->
    <path id="R0C4_F" fill="#FFF" d="M682.113 201.547s36.899 11.187 71.418 26.152c3.36 1.457 3.594 3.481 2.301 7.977l-19.031 66.086c-1.297 4.492-2.946 5.285-7.449 4.031l-69.914-19.484c-4.504-1.254-5.219-3.356-3.965-7.86l20.226-72.597c1.254-4.504 2.317-6.555 6.414-4.305z"/>
    <path id="R0C4_S" fill="none" stroke="#000" stroke-width=".8" stroke-linecap="round" d="M682.113 201.547s36.899 11.187 71.418 26.152c3.36 1.457 3.594 3.481 2.301 7.977l-19.031 66.086c-1.297 4.492-2.946 5.285-7.449 4.031l-69.914-19.484c-4.504-1.254-5.219-3.356-3.965-7.86l20.226-72.597c1.254-4.504 2.317-6.555 6.414-4.305z"/>

    <!-- R0C3 -->
    <path id="R0C3_F" fill="#FFF" d="M578.664 176.211s38.945 6.961 75.879 17.289c3.523.984 4.539 3.258 3.285 7.762l-18.555 66.609c-1.253 4.504-3.031 4.711-7.546 3.492l-72.106-19.422c-4.516-1.218-5.676-3.125-4.5-7.648l16.481-63.418c1.175-4.523 2.222-5.613 7.062-4.664z"/>
    <path id="R0C3_S" fill="none" stroke="#000" stroke-width=".8" stroke-linecap="round" d="M578.664 176.211s38.945 6.961 75.879 17.289c3.523.984 4.539 3.258 3.285 7.762l-18.555 66.609c-1.253 4.504-3.031 4.711-7.546 3.492l-72.106-19.422c-4.516-1.218-5.676-3.125-4.5-7.648l16.481-63.418c1.175-4.523 2.222-5.613 7.062-4.664z"/>

    <!-- R0C2 -->
    <path id="R0C2_F" fill="#FFF" d="M465.445 159.715s46.653 4.812 84.098 11.375c3.605.629 4.82 2.773 3.645 7.297l-21.965 84.543c-1.176 4.527-2.606 5.34-7.141 4.203l-77.66-19.465c-4.535-1.137-5.461-3.07-4.445-7.637l16.824-75.472c1.019-4.567 1.801-5.793 6.644-4.844z"/>
    <path id="R0C2_S" fill="none" stroke="#000" stroke-width=".8" stroke-linecap="round" d="M465.445 159.715s46.653 4.812 84.098 11.375c3.605.629 4.82 2.773 3.645 7.297l-21.965 84.543c-1.176 4.527-2.606 5.34-7.141 4.203l-77.66-19.465c-4.535-1.137-5.461-3.07-4.445-7.637l16.824-75.472c1.019-4.567 1.801-5.793 6.644-4.844z"/>

    <!-- R0C1 -->
    <path id="R0C1_F" fill="#FFF" d="M354.742 152.656s43.711.371 81.86 4.114c3.644.359 4.468 2.035 3.457 6.601L412.434 287.73c-1.016 4.563-1.817 5.059-6.407 4.161l-76.078-14.86c-4.586-.894-4.789-2.879-3.894-7.469L347.836 158c.898-4.59 1.359-5.41 6.906-5.344z"/>
    <path id="R0C1_S" fill="none" stroke="#000" stroke-width=".8" stroke-linecap="round" d="M354.742 152.656s43.711.371 81.86 4.114c3.644.359 4.468 2.035 3.457 6.601L412.434 287.73c-1.016 4.563-1.817 5.059-6.407 4.161l-76.078-14.86c-4.586-.894-4.789-2.879-3.894-7.469L347.836 158c.898-4.59 1.359-5.41 6.906-5.344z"/>

    <!-- R3C1 -->
    <path id="R3C1_F" fill="#FFF" d="M271.668 576.219s35.57 3.285 70.797 2.011c3.66-.132 5.422-.871 6.441-5.433l15.727-70.551c1.015-4.562.258-6.25-4.332-7.148l-69.192-13.516c-4.589-.894-6.468.113-7.363 4.703l-16.32 83.574c-1.176 6.028-.242 5.829 4.242 6.36z"/>
    <path id="R3C1_S" fill="none" stroke="#000" stroke-width=".8" stroke-linecap="round" d="M271.668 576.219s35.57 3.285 70.797 2.011c3.66-.132 5.422-.871 6.441-5.433l15.727-70.551c1.015-4.562.258-6.25-4.332-7.148l-69.192-13.516c-4.589-.894-6.468.113-7.363 4.703l-16.32 83.574c-1.176 6.028-.242 5.829 4.242 6.36z"/>

    <!-- R3C2 -->
    <path id="R3C2_F" fill="#FFF" d="M372.461 574.547l77.586-14.68c3.598-.679 4.269-.961 5.445-5.484l20.399-78.512c1.175-4.523.816-5.906-3.719-7.043l-72.18-18.094c-4.535-1.136-4.754-1.019-5.769 3.543l-25.5 114.395c-1.336 5.992-.325 6.246 3.738 5.875z"/>
    <path id="R3C2_S" fill="none" stroke="#000" stroke-width=".8" stroke-linecap="round" d="M372.461 574.547l77.586-14.68c3.598-.679 4.269-.961 5.445-5.484l20.399-78.512c1.175-4.523.816-5.906-3.719-7.043l-72.18-18.094c-4.535-1.136-4.754-1.019-5.769 3.543l-25.5 114.395c-1.336 5.992-.325 6.246 3.738 5.875z"/>

    <!-- R3C3 -->
    <path id="R3C3_F" fill="#FFF" d="M478.973 557.34c22.379-.461 48.859 2.265 72.707 6.707 2.511.469 5.05.144 6.308-4.359l22.555-80.973c1.254-4.504.047-5.453-4.469-6.668l-69.23-18.641c-4.516-1.215-5.692-1.414-6.867 3.114l-24.493 94.253c-1.543 5.946 1.008 6.618 3.489 6.567z"/>
    <path id="R3C3_S" fill="none" stroke="#000" stroke-width=".8" stroke-linecap="round" d="M478.973 557.34c22.379-.461 48.859 2.265 72.707 6.707 2.511.469 5.05.144 6.308-4.359l22.555-80.973c1.254-4.504.047-5.453-4.469-6.668l-69.23-18.641c-4.516-1.215-5.692-1.414-6.867 3.114l-24.493 94.253c-1.543 5.946 1.008 6.618 3.489 6.567z"/>

    <!-- R3C4 -->
    <path id="R3C4_F" fill="#FFF" d="M578.934 571.102c13.293 3.804 47.941 16.343 68.07 25.882 2.308 1.094 4.441 1.161 5.738-3.332l23.332-81.023c1.293-4.492.824-5.406-3.672-6.699l-69.289-19.965c-4.492-1.293-5.136-1.11-6.39 3.394l-20.532 73.711c-1.648 5.914.36 7.348 2.743 8.032z"/>
    <path id="R3C4_S" fill="none" stroke="#000" stroke-width=".8" stroke-linecap="round" d="M578.934 571.102c13.293 3.804 47.941 16.343 68.07 25.882 2.308 1.094 4.441 1.161 5.738-3.332l23.332-81.023c1.293-4.492.824-5.406-3.672-6.699l-69.289-19.965c-4.492-1.293-5.136-1.11-6.39 3.394l-20.532 73.711c-1.648 5.914.36 7.348 2.743 8.032z"/>

    <!-- R3C5 -->
    <path id="R3C5_F" fill="#FFF" d="M671.781 608.922c13.887 6.363 45.364 25.109 64.531 38.398 2.102 1.457 4.637 1.852 5.93-2.645l24.074-83.59c1.293-4.492.711-5.953-3.781-7.25l-67.652-19.492c-4.492-1.293-5.641-.797-6.934 3.699l-17.906 62.184c-1.699 5.903-.516 7.665 1.738 8.696z"/>
    <path id="R3C5_S" fill="none" stroke="#000" stroke-width=".8" stroke-linecap="round" d="M671.781 608.922c13.887 6.363 45.364 25.109 64.531 38.398 2.102 1.457 4.637 1.852 5.93-2.645l24.074-83.59c1.293-4.492.711-5.953-3.781-7.25l-67.652-19.492c-4.492-1.293-5.641-.797-6.934 3.699l-17.906 62.184c-1.699 5.903-.516 7.665 1.738 8.696z"/>

    <!-- R2C6 -->
    <path id="R2C6_F" fill="#FFF" d="M759.754 664.254c13.176 9.477 45.051 36.719 61.586 54.055 3.426 3.59 5.387-.68 6.68-5.172l33.601-116.68c1.293-4.492.695-5.457-3.797-6.75l-68.457-19.727c-4.492-1.292-6.172-.855-7.465 3.637l-23.359 81.109c-1.699 5.903-.801 8.083 1.211 9.528z"/>
    <path id="R2C6_S" fill="none" stroke="#000" stroke-width=".8" stroke-linecap="round" d="M759.754 664.254c13.176 9.477 45.051 36.719 61.586 54.055 3.426 3.59 5.387-.68 6.68-5.172l33.601-116.68c1.293-4.492.695-5.457-3.797-6.75l-68.457-19.727c-4.492-1.292-6.172-.855-7.465 3.637l-23.359 81.109c-1.699 5.903-.801 8.083 1.211 9.528z"/>

    <!-- R1C6 -->
    <path id="R1C6_F" fill="#FFF" d="M822.258 453.746l69.148 19.926c4.492 1.293 4.953 2.156 3.66 6.648l-25.39 88.16c-1.293 4.493-2.684 4.668-7.176 3.372l-68.895-19.848c-4.496-1.297-4.742-2.555-3.449-7.051l25.262-87.715c1.293-4.492 2.344-4.785 6.84-3.492z"/>
    <path id="R1C6_S" fill="none" stroke="#000" stroke-width=".8" stroke-linecap="round" d="M822.258 453.746l69.148 19.926c4.492 1.293 4.953 2.156 3.66 6.648l-25.39 88.16c-1.293 4.493-2.684 4.668-7.176 3.372l-68.895-19.848c-4.496-1.297-4.742-2.555-3.449-7.051l25.262-87.715c1.293-4.492 2.344-4.785 6.84-3.492z"/>

    <!-- R0C7 -->
    <path id="R0C7_F" fill="#FFF" d="M645.574 623.582c22.207 10.426 42.653 22.129 61.836 34.453 2.356 1.516 4.496 4.312 1.887 8.191l-45.348 67.332c-2.609 3.879-5.715 3.84-8.019 2.285-15.332-10.336-31.93-19.098-49.063-27.367-2.308-1.113-4.742-2.887-2.816-7.148l34.179-75.687c1.926-4.262 5.043-3.141 7.344-2.059z"/>
    <path id="R0C7_S" fill="none" stroke="#000" stroke-width=".8" stroke-linecap="round" d="M645.574 623.582c22.207 10.426 42.653 22.129 61.836 34.453 2.356 1.516 4.496 4.312 1.887 8.191l-45.348 67.332c-2.609 3.879-5.715 3.84-8.019 2.285-15.332-10.336-31.93-19.098-49.063-27.367-2.308-1.113-4.742-2.887-2.816-7.148l34.179-75.687c1.926-4.262 5.043-3.141 7.344-2.059z"/>

    <!-- R1C7 -->
    <path id="R1C7_F" fill="#FFF" d="M730.582 673.738c20.055 14.129 38.16 29.207 54.91 44.676 2.055 1.898 3.68 5.027.434 8.395l-56.356 58.43c-3.242 3.363-6.297 2.785-8.297.855-13.3-12.844-28.125-24.352-43.558-35.473-2.078-1.496-4.168-3.668-1.535-7.531l46.812-68.598c2.637-3.863 5.512-2.219 7.59-.754z"/>
    <path id="R1C7_S" fill="none" stroke="#000" stroke-width=".8" stroke-linecap="round" d="M730.582 673.738c20.055 14.129 38.16 29.207 54.91 44.676 2.055 1.898 3.68 5.027.434 8.395l-56.356 58.43c-3.242 3.363-6.297 2.785-8.297.855-13.3-12.844-28.125-24.352-43.558-35.473-2.078-1.496-4.168-3.668-1.535-7.531l46.812-68.598c2.637-3.863 5.512-2.219 7.59-.754z"/>

    <!-- R2C7 -->
    <path id="R2C7_F" fill="#FFF" d="M805.93 738.68c17.258 17.438 32.425 35.465 46.191 53.641 1.691 2.234 2.738 5.598-1.047 8.34l-65.758 47.605c-3.785 2.738-6.687 1.633-8.316-.621-10.836-14.98-23.402-28.918-36.641-42.582-1.781-1.84-3.457-4.344-.183-7.684l58.148-59.293c3.278-3.336 5.817-1.211 7.606.594z"/>
    <path id="R2C7_S" fill="none" stroke="#000" stroke-width=".8" stroke-linecap="round" d="M805.93 738.68c17.258 17.438 32.425 35.465 46.191 53.641 1.691 2.234 2.738 5.598-1.047 8.34l-65.758 47.605c-3.785 2.738-6.687 1.633-8.316-.621-10.836-14.98-23.402-28.918-36.641-42.582-1.781-1.84-3.457-4.344-.183-7.684l58.148-59.293c3.278-3.336 5.817-1.211 7.606.594z"/>

    <!-- R3C7 -->
    <path id="R3C7_F" fill="#FFF" d="M868.992 815.539c13.973 20.168 25.504 39.945 35.906 60.23 1.278 2.496 1.352 5.961-2.851 8.008l-73.684 35.93c-4.203 2.051-5.941-.215-7.156-2.715-8.07-16.637-17.898-32.098-28.562-47.852-1.438-2.121-3.047-5.121.757-7.84l67.559-48.3c3.805-2.719 6.586.449 8.031 2.539z"/>
    <path id="R3C7_S" fill="none" stroke="#000" stroke-width=".8" stroke-linecap="round" d="M868.992 815.539c13.973 20.168 25.504 39.945 35.906 60.23 1.278 2.496 1.352 5.961-2.851 8.008l-73.684 35.93c-4.203 2.051-5.941-.215-7.156-2.715-8.07-16.637-17.898-32.098-28.562-47.852-1.438-2.121-3.047-5.121.757-7.84l67.559-48.3c3.805-2.719 6.586.449 8.031 2.539z"/>

    <!-- R0C6 -->
    <path id="R0C6_F" fill="#FFF" d="M870.496 293.531c13.641 11.145 28.859 23.477 39.16 38.653 16.594 24.441 14.692 43.578 10.574 60.234-4.918 19.898-16.878 59.125-16.878 59.125-1.282 4.496-2.868 5.461-7.36 4.168l-67.871-19.555c-4.492-1.297-5.492-3.961-4.199-8.457l38.441-133.48c1.293-4.492 6.028-2.41 8.133-.688z"/>
    <path id="R0C6_S" fill="none" stroke="#000" stroke-width=".8" stroke-linecap="round" d="M870.496 293.531c13.641 11.145 28.859 23.477 39.16 38.653 16.594 24.441 14.692 43.578 10.574 60.234-4.918 19.898-16.878 59.125-16.878 59.125-1.282 4.496-2.868 5.461-7.36 4.168l-67.871-19.555c-4.492-1.297-5.492-3.961-4.199-8.457l38.441-133.48c1.293-4.492 6.028-2.41 8.133-.688z"/>

    <!-- R0C0 -->
    <path id="R0C0_F" fill="#FFF" d="M324.629 153.957c-14.824 1.016-34.711 2.344-47.156 5.629-22.891 6.031-31.395 19.113-35.239 31.187l-18.925 59.469c-1.418 4.453-.563 5.805 4.027 6.703l74.172 14.532c4.586.898 5.535-.766 6.426-5.356l20.855-107.16c.895-4.586-1.445-5.188-4.16-5.004z"/>
    <path id="R0C0_S" fill="none" stroke="#000" stroke-width=".8" stroke-linecap="round" d="M324.629 153.957c-14.824 1.016-34.711 2.344-47.156 5.629-22.891 6.031-31.395 19.113-35.239 31.187l-18.925 59.469c-1.418 4.453-.563 5.805 4.027 6.703l74.172 14.532c4.586.898 5.535-.766 6.426-5.356l20.855-107.16c.895-4.586-1.445-5.188-4.16-5.004z"/>



    <!-- Right half -->


    <!-- R3C9 -->
    <ellipse id="R3C9_F" transform="rotate(-134.999 1437.247 953.475)" fill="#FFF" cx="1437.242" cy="953.468" rx="75.6" ry="56.001"/>
    <ellipse id="R3C9_S" transform="rotate(-134.999 1437.247 953.475)" fill="none" stroke="#000" stroke-width=".8" stroke-linecap="round" cx="1437.242" cy="953.468" rx="75.6" ry="56"/>

    <!-- R2C15 -->
    <path id="R2C15_F" fill="#FFF" d="M1849.629 366.844l-79.742 15.578c-4.59.894-6.477 3.23-5.582 7.816l12.168 62.312c.895 4.59 3.559 5.676 8.148 4.777l78.629-15.359c4.59-.895 7.055-.949 6.191-5.543l-12.09-64.442c-.863-4.592-3.136-6.034-7.722-5.139z"/>
    <path id="R2C15_S" fill="none" stroke="#000" stroke-width=".8" stroke-linecap="round" d="M1849.629 366.844l-79.742 15.578c-4.59.894-6.477 3.23-5.582 7.816l12.168 62.312c.895 4.59 3.559 5.676 8.148 4.777l78.629-15.359c4.59-.895 7.055-.949 6.191-5.543l-12.09-64.442c-.863-4.592-3.136-6.034-7.722-5.139z"/>

    <!-- R1C15 -->
    <path id="R1C15_F" fill="#FFF" d="M1826.762 274.598l-74.477 14.547c-4.586.894-7.059 3.363-6.164 7.949l12.16 62.285c.895 4.59 2.32 6.059 6.91 5.16l80.422-15.707c4.59-.898 5.906-2.918 4.703-7.437l-16.547-61.961c-1.207-4.516-2.417-5.735-7.007-4.836z"/>
    <path id="R1C15_S" fill="none" stroke="#000" stroke-width=".8" stroke-linecap="round" d="M1826.762 274.598l-74.477 14.547c-4.586.894-7.059 3.363-6.164 7.949l12.16 62.285c.895 4.59 2.32 6.059 6.91 5.16l80.422-15.707c4.59-.898 5.906-2.918 4.703-7.437l-16.547-61.961c-1.207-4.516-2.417-5.735-7.007-4.836z"/>

    <!-- R1C14 -->
    <path id="R1C14_F" fill="#FFF" d="M1720.328 295.387l-73.496 14.355c-4.59.899-5.84 2.371-4.824 6.934l13.855 62.375c1.012 4.562 2.5 6.355 7.09 5.461l72.836-14.227c4.59-.898 5.363-2.379 4.469-6.965l-12.379-63.41c-.899-4.59-2.961-5.422-7.551-4.523z"/>
    <path id="R1C14_S" fill="none" stroke="#000" stroke-width=".8" stroke-linecap="round" d="M1720.328 295.387l-73.496 14.355c-4.59.899-5.84 2.371-4.824 6.934l13.855 62.375c1.012 4.562 2.5 6.355 7.09 5.461l72.836-14.227c4.59-.898 5.363-2.379 4.469-6.965l-12.379-63.41c-.899-4.59-2.961-5.422-7.551-4.523z"/>

    <!-- R2C14 -->
    <path id="R2C14_F" fill="#FFF" d="M1738.824 388.488l-71.711 14.008c-4.59.895-5.566 2.137-4.555 6.699l13.902 62.586c1.016 4.562 2.055 6.274 6.641 5.375l71.02-13.871c4.586-.894 5.156-2.543 4.262-7.133l-12.379-63.41c-.899-4.586-2.59-5.152-7.18-4.254z"/>
    <path id="R2C14_S" fill="none" stroke="#000" stroke-width=".8" stroke-linecap="round" d="M1738.824 388.488l-71.711 14.008c-4.59.895-5.566 2.137-4.555 6.699l13.902 62.586c1.016 4.562 2.055 6.274 6.641 5.375l71.02-13.871c4.586-.894 5.156-2.543 4.262-7.133l-12.379-63.41c-.899-4.586-2.59-5.152-7.18-4.254z"/>

    <!-- R3C15 -->
    <path id="R3C15_F" fill="#FFF" d="M1865.914 460.289l-78.801 15.809c-4.586.918-5.441 2.109-4.555 6.699l16.332 84.59c.887 4.59 1.695 5.984 7.52 5.328 28.297-4.344 56.141-11.207 65.52-27.461 11.379-17.524 1.441-80.922 1.441-80.922.086-4.676-2.871-4.961-7.457-4.043z"/>
    <path id="R3C15_S" fill="none" stroke="#000" stroke-width=".8" stroke-linecap="round" d="M1865.914 460.289l-78.801 15.809c-4.586.918-5.441 2.109-4.555 6.699l16.332 84.59c.887 4.59 1.695 5.984 7.52 5.328 28.297-4.344 56.141-11.207 65.52-27.461 11.379-17.524 1.441-80.922 1.441-80.922.086-4.676-2.871-4.961-7.457-4.043z"/>

    <!-- R2C13 -->
    <path id="R2C13_F" fill="#FFF" d="M1625.953 358.395l-74.02 18.593c-4.535 1.141-4.891 2.379-3.715 6.903l16.305 62.746c1.176 4.527 1.594 5.609 6.129 4.472l72.227-18.105c4.535-1.137 5.566-2.692 4.551-7.254l-14.27-64.02c-1.019-4.562-2.672-4.476-7.207-3.335z"/>
    <path id="R2C13_S" fill="none" stroke="#000" stroke-width=".8" stroke-linecap="round" d="M1625.953 358.395l-74.02 18.593c-4.535 1.141-4.891 2.379-3.715 6.903l16.305 62.746c1.176 4.527 1.594 5.609 6.129 4.472l72.227-18.105c4.535-1.137 5.566-2.692 4.551-7.254l-14.27-64.02c-1.019-4.562-2.672-4.476-7.207-3.335z"/>

    <!-- R2C12 -->
    <path id="R2C12_F" fill="#FFF" d="M1518.102 361.332l-72.297 19.457c-4.516 1.215-4.914 2.516-3.66 7.02l17.508 62.847c1.254 4.504 2.223 4.992 6.738 3.778l70.98-19.114c4.516-1.215 4.613-2.074 3.438-6.601l-16.48-63.418c-1.177-4.528-1.712-5.184-6.227-3.969z"/>
    <path id="R2C12_S" fill="none" stroke="#000" stroke-width=".8" stroke-linecap="round" d="M1518.102 361.332l-72.297 19.457c-4.516 1.215-4.914 2.516-3.66 7.02l17.508 62.847c1.254 4.504 2.223 4.992 6.738 3.778l70.98-19.114c4.516-1.215 4.613-2.074 3.438-6.601l-16.48-63.418c-1.177-4.528-1.712-5.184-6.227-3.969z"/>

    <!-- R1C13 -->
    <path id="R1C13_F" fill="#FFF" d="M1605.465 265.715l-76.68 19.223c-4.535 1.136-5.406 3.359-4.23 7.886l16.176 62.25c1.176 4.528 3.203 4.903 7.738 3.762l74.441-18.703c4.535-1.137 4.945-2.192 3.93-6.754l-14.219-63.774c-1.016-4.562-2.617-5.027-7.156-3.89z"/>
    <path id="R1C13_S" fill="none" stroke="#000" stroke-width=".8" stroke-linecap="round" d="M1605.465 265.715l-76.68 19.223c-4.535 1.136-5.406 3.359-4.23 7.886l16.176 62.25c1.176 4.528 3.203 4.903 7.738 3.762l74.441-18.703c4.535-1.137 4.945-2.192 3.93-6.754l-14.219-63.774c-1.016-4.562-2.617-5.027-7.156-3.89z"/>

    <!-- R1C12 -->
    <path id="R1C12_F" fill="#FFF" d="M1493.512 269.668l-72.484 19.523c-4.516 1.219-5.52 2.993-4.266 7.497l17.434 62.585c1.254 4.504 2.66 4.821 7.176 3.606l71.641-19.281c4.516-1.215 5.145-2.063 3.969-6.586l-16.57-63.774c-1.178-4.523-2.385-4.789-6.9-3.57z"/>
    <path id="R1C12_S" fill="none" stroke="#000" stroke-width=".8" stroke-linecap="round" d="M1493.512 269.668l-72.484 19.523c-4.516 1.219-5.52 2.993-4.266 7.497l17.434 62.585c1.254 4.504 2.66 4.821 7.176 3.606l71.641-19.281c4.516-1.215 5.145-2.063 3.969-6.586l-16.57-63.774c-1.178-4.523-2.385-4.789-6.9-3.57z"/>

    <!-- R1C11 -->
    <path id="R1C11_F" fill="#FFF" d="M1393.551 304.07l-69.539 19.383c-4.508 1.254-5.723 2.895-4.43 7.387l17.812 61.851c1.297 4.497 3.23 5.379 7.723 4.086l69.48-20.019c4.496-1.297 4.652-2.403 3.398-6.906l-17.348-62.278c-1.252-4.504-2.588-4.758-7.096-3.504z"/>
    <path id="R1C11_S" fill="none" stroke="#000" stroke-width=".8" stroke-linecap="round" d="M1393.551 304.07l-69.539 19.383c-4.508 1.254-5.723 2.895-4.43 7.387l17.812 61.851c1.297 4.497 3.23 5.379 7.723 4.086l69.48-20.019c4.496-1.297 4.652-2.403 3.398-6.906l-17.348-62.278c-1.252-4.504-2.588-4.758-7.096-3.504z"/>

    <!-- R2C11 -->
    <path id="R2C11_F" fill="#FFF" d="M1418.059 394.961l-68.449 19.691c-4.492 1.293-5.117 2.676-3.824 7.168l17.887 62.121c1.297 4.493 2.551 5.321 7.047 4.036l68.594-19.602c4.496-1.285 5.328-2.875 4.07-7.379l-17.551-63.012c-1.255-4.504-3.282-4.316-7.774-3.023z"/>
    <path id="R2C11_S" fill="none" stroke="#000" stroke-width=".8" stroke-linecap="round" d="M1418.059 394.961l-68.449 19.691c-4.492 1.293-5.117 2.676-3.824 7.168l17.887 62.121c1.297 4.493 2.551 5.321 7.047 4.036l68.594-19.602c4.496-1.285 5.328-2.875 4.07-7.379l-17.551-63.012c-1.255-4.504-3.282-4.316-7.774-3.023z"/>

    <!-- R2C10 -->
    <path id="R2C10_F" fill="#FFF" d="M1326.105 443.398l-66.547 19.172c-4.492 1.297-5.41 2.864-4.117 7.356l18.043 62.652c1.293 4.492 2.723 4.731 7.215 3.434l67.016-19.309c4.492-1.293 5.289-3.164 3.992-7.656l-17.973-62.41c-1.293-4.496-3.136-4.532-7.629-3.239z"/>
    <path id="R2C10_S" fill="none" stroke="#000" stroke-width=".8" stroke-linecap="round" d="M1326.105 443.398l-66.547 19.172c-4.492 1.297-5.41 2.864-4.117 7.356l18.043 62.652c1.293 4.492 2.723 4.731 7.215 3.434l67.016-19.309c4.492-1.293 5.289-3.164 3.992-7.656l-17.973-62.41c-1.293-4.496-3.136-4.532-7.629-3.239z"/>

    <!-- R1C10 -->
    <path id="R1C10_F" fill="#FFF" d="M1299.914 352.199l-66.547 19.172c-4.492 1.297-5.477 2.879-4.184 7.375l17.941 62.293c1.293 4.492 2.984 5.055 7.477 3.762l67.234-19.371c4.492-1.297 4.762-3.582 3.469-8.075l-17.816-61.855c-1.293-4.492-3.082-4.594-7.574-3.301z"/>
    <path id="R1C10_S" fill="none" stroke="#000" stroke-width=".8" stroke-linecap="round" d="M1299.914 352.199l-66.547 19.172c-4.492 1.297-5.477 2.879-4.184 7.375l17.941 62.293c1.293 4.492 2.984 5.055 7.477 3.762l67.234-19.371c4.492-1.297 4.762-3.582 3.469-8.075l-17.816-61.855c-1.293-4.492-3.082-4.594-7.574-3.301z"/>

    <!-- R0C10 -->
    <path id="R0C10_F" fill="#FFF" d="M1267.309 239.906s-41.793 19.938-61.348 33.649c-2.996 2.097-5.438 5.675-4.141 10.168l18.691 64.914c1.297 4.496 3.25 6.304 7.742 5.008l67.234-19.372c4.496-1.293 4.996-3.093 3.703-7.585l-23.883-82.934c-1.291-4.492-3.897-6.098-7.998-3.848z"/>
    <path id="R0C10_S" fill="none" stroke="#000" stroke-width=".8" stroke-linecap="round" d="M1267.309 239.906s-41.793 19.938-61.348 33.649c-2.996 2.097-5.438 5.675-4.141 10.168l18.691 64.914c1.297 4.496 3.25 6.304 7.742 5.008l67.234-19.372c4.496-1.293 4.996-3.093 3.703-7.585l-23.883-82.934c-1.291-4.492-3.897-6.098-7.998-3.848z"/>

    <!-- R0C11 -->
    <path id="R0C11_F" fill="#FFF" d="M1365.895 201.547s-36.895 11.187-71.418 26.152c-3.355 1.457-3.594 3.481-2.297 7.977l19.031 66.086c1.293 4.492 2.941 5.285 7.445 4.031l69.914-19.484c4.504-1.254 5.219-3.356 3.965-7.86l-20.223-72.597c-1.253-4.504-2.316-6.555-6.417-4.305z"/>
    <path id="R0C11_S" fill="none" stroke="#000" stroke-width=".8" stroke-linecap="round" d="M1365.895 201.547s-36.895 11.187-71.418 26.152c-3.355 1.457-3.594 3.481-2.297 7.977l19.031 66.086c1.293 4.492 2.941 5.285 7.445 4.031l69.914-19.484c4.504-1.254 5.219-3.356 3.965-7.86l-20.223-72.597c-1.253-4.504-2.316-6.555-6.417-4.305z"/>

    <!-- R0C12 -->
    <path id="R0C12_F" fill="#FFF" d="M1469.344 176.211s-38.945 6.961-75.879 17.289c-3.523.984-4.539 3.258-3.285 7.762l18.555 66.609c1.254 4.504 3.035 4.711 7.547 3.492l72.109-19.422c4.512-1.218 5.672-3.125 4.496-7.648l-16.477-63.418c-1.176-4.523-2.222-5.613-7.066-4.664z"/>
    <path id="R0C12_S" fill="none" stroke="#000" stroke-width=".8" stroke-linecap="round" d="M1469.344 176.211s-38.945 6.961-75.879 17.289c-3.523.984-4.539 3.258-3.285 7.762l18.555 66.609c1.254 4.504 3.035 4.711 7.547 3.492l72.109-19.422c4.512-1.218 5.672-3.125 4.496-7.648l-16.477-63.418c-1.176-4.523-2.222-5.613-7.066-4.664z"/>

    <!-- R0C13 -->
    <path id="R0C13_F" fill="#FFF" d="M1582.566 159.715s-46.656 4.812-84.102 11.375c-3.605.629-4.82 2.773-3.645 7.297l21.969 84.543c1.176 4.527 2.602 5.34 7.137 4.203l77.66-19.465c4.535-1.137 5.461-3.07 4.445-7.637l-16.824-75.472c-1.015-4.567-1.8-5.793-6.64-4.844z"/>
    <path id="R0C13_S" fill="none" stroke="#000" stroke-width=".8" stroke-linecap="round" d="M1582.566 159.715s-46.656 4.812-84.102 11.375c-3.605.629-4.82 2.773-3.645 7.297l21.969 84.543c1.176 4.527 2.602 5.34 7.137 4.203l77.66-19.465c4.535-1.137 5.461-3.07 4.445-7.637l-16.824-75.472c-1.015-4.567-1.8-5.793-6.64-4.844z"/>

    <!-- R0C14 -->
    <path id="R0C14_F" fill="#FFF" d="M1693.266 152.656s-43.707.371-81.859 4.114c-3.641.359-4.469 2.035-3.453 6.601l27.625 124.359c1.012 4.563 1.812 5.059 6.402 4.161l76.078-14.86c4.59-.894 4.789-2.879 3.895-7.469L1700.172 158c-.899-4.59-1.36-5.41-6.906-5.344z"/>
    <path id="R0C14_S" fill="none" stroke="#000" stroke-width=".8" stroke-linecap="round" d="M1693.266 152.656s-43.707.371-81.859 4.114c-3.641.359-4.469 2.035-3.453 6.601l27.625 124.359c1.012 4.563 1.812 5.059 6.402 4.161l76.078-14.86c4.59-.894 4.789-2.879 3.895-7.469L1700.172 158c-.899-4.59-1.36-5.41-6.906-5.344z"/>

    <!-- R3C14 -->
    <path id="R3C14_F" fill="#FFF" d="M1776.344 576.219s-35.57 3.285-70.801 2.011c-3.66-.132-5.422-.871-6.438-5.433l-15.727-70.551c-1.02-4.562-.258-6.25 4.328-7.148l69.191-13.516c4.59-.894 6.469.113 7.367 4.703l16.316 83.574c1.178 6.028.244 5.829-4.236 6.36z"/>
    <path id="R3C14_S" fill="none" stroke="#000" stroke-width=".8" stroke-linecap="round" d="M1776.344 576.219s-35.57 3.285-70.801 2.011c-3.66-.132-5.422-.871-6.438-5.433l-15.727-70.551c-1.02-4.562-.258-6.25 4.328-7.148l69.191-13.516c4.59-.894 6.469.113 7.367 4.703l16.316 83.574c1.178 6.028.244 5.829-4.236 6.36z"/>

    <!-- R3C13 -->
    <path id="R3C13_F" fill="#FFF" d="M1675.547 574.547l-77.586-14.68c-3.598-.679-4.266-.961-5.441-5.484l-20.402-78.512c-1.176-4.523-.816-5.906 3.723-7.043l72.18-18.094c4.535-1.136 4.75-1.019 5.77 3.543l25.496 114.395c1.334 5.992.326 6.246-3.74 5.875z"/>
    <path id="R3C13_S" fill="none" stroke="#000" stroke-width=".8" stroke-linecap="round" d="M1675.547 574.547l-77.586-14.68c-3.598-.679-4.266-.961-5.441-5.484l-20.402-78.512c-1.176-4.523-.816-5.906 3.723-7.043l72.18-18.094c4.535-1.136 4.75-1.019 5.77 3.543l25.496 114.395c1.334 5.992.326 6.246-3.74 5.875z"/>

    <!-- R3C12 -->
    <path id="R3C12_F" fill="#FFF" d="M1569.039 557.34c-22.383-.461-48.863 2.265-72.707 6.707-2.516.469-5.055.144-6.309-4.359l-22.555-80.973c-1.258-4.504-.051-5.453 4.465-6.668l69.234-18.641c4.512-1.215 5.688-1.414 6.863 3.114l24.492 94.253c1.544 5.946-1.006 6.618-3.483 6.567z"/>
    <path id="R3C12_S" fill="none" stroke="#000" stroke-width=".8" stroke-linecap="round" d="M1569.039 557.34c-22.383-.461-48.863 2.265-72.707 6.707-2.516.469-5.055.144-6.309-4.359l-22.555-80.973c-1.258-4.504-.051-5.453 4.465-6.668l69.234-18.641c4.512-1.215 5.688-1.414 6.863 3.114l24.492 94.253c1.544 5.946-1.006 6.618-3.483 6.567z"/>

    <!-- R3C11 -->
    <path id="R3C11_F" fill="#FFF" d="M1469.078 571.102c-13.297 3.804-47.945 16.343-68.074 25.882-2.309 1.094-4.441 1.161-5.734-3.332l-23.336-81.023c-1.293-4.492-.82-5.406 3.672-6.699l69.289-19.965c4.492-1.293 5.137-1.11 6.391 3.394l20.531 73.711c1.648 5.914-.356 7.348-2.739 8.032z"/>
    <path id="R3C11_S" fill="none" stroke="#000" stroke-width=".8" stroke-linecap="round" d="M1469.078 571.102c-13.297 3.804-47.945 16.343-68.074 25.882-2.309 1.094-4.441 1.161-5.734-3.332l-23.336-81.023c-1.293-4.492-.82-5.406 3.672-6.699l69.289-19.965c4.492-1.293 5.137-1.11 6.391 3.394l20.531 73.711c1.648 5.914-.356 7.348-2.739 8.032z"/>

    <!-- R3C10 -->
    <path id="R3C10_F" fill="#FFF" d="M1376.227 608.922c-13.883 6.363-45.359 25.109-64.531 38.398-2.098 1.457-4.637 1.852-5.93-2.645l-24.07-83.59c-1.297-4.492-.715-5.953 3.781-7.25l67.648-19.492c4.496-1.293 5.641-.797 6.934 3.699l17.91 62.184c1.699 5.903.511 7.665-1.742 8.696z"/>
    <path id="R3C10_S" fill="none" stroke="#000" stroke-width=".8" stroke-linecap="round" d="M1376.227 608.922c-13.883 6.363-45.359 25.109-64.531 38.398-2.098 1.457-4.637 1.852-5.93-2.645l-24.07-83.59c-1.297-4.492-.715-5.953 3.781-7.25l67.648-19.492c4.496-1.293 5.641-.797 6.934 3.699l17.91 62.184c1.699 5.903.511 7.665-1.742 8.696z"/>

    <!-- R2C9 -->
    <path id="R2C9_F" fill="#FFF" d="M1288.254 664.254c-13.176 9.477-45.051 36.719-61.586 54.055-3.422 3.59-5.383-.68-6.676-5.172l-33.602-116.68c-1.297-4.492-.699-5.457 3.797-6.75l68.453-19.727c4.496-1.292 6.172-.855 7.469 3.637l23.355 81.109c1.7 5.903.802 8.083-1.21 9.528z"/>
    <path id="R2C9_S" fill="none" stroke="#000" stroke-width=".8" stroke-linecap="round" d="M1288.254 664.254c-13.176 9.477-45.051 36.719-61.586 54.055-3.422 3.59-5.383-.68-6.676-5.172l-33.602-116.68c-1.297-4.492-.699-5.457 3.797-6.75l68.453-19.727c4.496-1.292 6.172-.855 7.469 3.637l23.355 81.109c1.7 5.903.802 8.083-1.21 9.528z"/>

    <!-- R1C9 -->
    <path id="R1C9_F" fill="#FFF" d="M1225.754 453.746l-69.148 19.926c-4.496 1.293-4.953 2.156-3.66 6.648l25.387 88.16c1.293 4.493 2.684 4.668 7.18 3.372l68.895-19.848c4.492-1.297 4.742-2.555 3.449-7.051l-25.262-87.715c-1.294-4.492-2.349-4.785-6.841-3.492z"/>
    <path id="R1C9_S" fill="none" stroke="#000" stroke-width=".8" stroke-linecap="round" d="M1225.754 453.746l-69.148 19.926c-4.496 1.293-4.953 2.156-3.66 6.648l25.387 88.16c1.293 4.493 2.684 4.668 7.18 3.372l68.895-19.848c4.492-1.297 4.742-2.555 3.449-7.051l-25.262-87.715c-1.294-4.492-2.349-4.785-6.841-3.492z"/>

    <!-- R0C8 -->
    <path id="R0C8_F" fill="#FFF" d="M1402.438 623.582c-22.207 10.426-42.656 22.129-61.836 34.453-2.359 1.516-4.5 4.312-1.887 8.191l45.344 67.332c2.609 3.879 5.715 3.84 8.023 2.285 15.328-10.336 31.926-19.098 49.059-27.367 2.309-1.113 4.742-2.887 2.82-7.148l-34.184-75.687c-1.922-4.262-5.039-3.141-7.339-2.059z"/>
    <path id="R0C8_S" fill="none" stroke="#000" stroke-width=".8" stroke-linecap="round" d="M1402.438 623.582c-22.207 10.426-42.656 22.129-61.836 34.453-2.359 1.516-4.5 4.312-1.887 8.191l45.344 67.332c2.609 3.879 5.715 3.84 8.023 2.285 15.328-10.336 31.926-19.098 49.059-27.367 2.309-1.113 4.742-2.887 2.82-7.148l-34.184-75.687c-1.922-4.262-5.039-3.141-7.339-2.059z"/>

    <!-- R1C8 -->
    <path id="R1C8_F" fill="#FFF" d="M1317.43 673.738c-20.059 14.129-38.16 29.207-54.91 44.676-2.059 1.898-3.68 5.027-.438 8.395l56.355 58.43c3.246 3.363 6.297 2.785 8.297.855 13.301-12.844 28.125-24.352 43.562-35.473 2.078-1.496 4.168-3.668 1.531-7.531l-46.812-68.598c-2.636-3.863-5.507-2.219-7.585-.754z"/>
    <path id="R1C8_S" fill="none" stroke="#000" stroke-width=".8" stroke-linecap="round" d="M1317.43 673.738c-20.059 14.129-38.16 29.207-54.91 44.676-2.059 1.898-3.68 5.027-.438 8.395l56.355 58.43c3.246 3.363 6.297 2.785 8.297.855 13.301-12.844 28.125-24.352 43.562-35.473 2.078-1.496 4.168-3.668 1.531-7.531l-46.812-68.598c-2.636-3.863-5.507-2.219-7.585-.754z"/>

    <!-- R2C8 -->
    <path id="R2C8_F" fill="#FFF" d="M1242.082 738.68c-17.258 17.438-32.426 35.465-46.195 53.641-1.691 2.234-2.738 5.598 1.051 8.34l65.754 47.605c3.789 2.738 6.688 1.633 8.316-.621 10.836-14.98 23.406-28.918 36.641-42.582 1.785-1.84 3.461-4.344.184-7.684l-58.148-59.293c-3.275-3.336-5.818-1.211-7.603.594z"/>
    <path id="R2C8_S" fill="none" stroke="#000" stroke-width=".8" stroke-linecap="round" d="M1242.082 738.68c-17.258 17.438-32.426 35.465-46.195 53.641-1.691 2.234-2.738 5.598 1.051 8.34l65.754 47.605c3.789 2.738 6.688 1.633 8.316-.621 10.836-14.98 23.406-28.918 36.641-42.582 1.785-1.84 3.461-4.344.184-7.684l-58.148-59.293c-3.275-3.336-5.818-1.211-7.603.594z"/>

    <!-- R3C8 -->
    <path id="R3C8_F" fill="#FFF" d="M1179.016 815.539c-13.969 20.168-25.5 39.945-35.906 60.23-1.277 2.496-1.348 5.961 2.855 8.008l73.68 35.93c4.203 2.051 5.941-.215 7.156-2.715 8.07-16.637 17.898-32.098 28.562-47.852 1.438-2.121 3.047-5.121-.754-7.84l-67.562-48.3c-3.801-2.719-6.586.449-8.031 2.539z"/>
    <path id="R3C8_S" fill="none" stroke="#000" stroke-width=".8" stroke-linecap="round" d="M1179.016 815.539c-13.969 20.168-25.5 39.945-35.906 60.23-1.277 2.496-1.348 5.961 2.855 8.008l73.68 35.93c4.203 2.051 5.941-.215 7.156-2.715 8.07-16.637 17.898-32.098 28.562-47.852 1.438-2.121 3.047-5.121-.754-7.84l-67.562-48.3c-3.801-2.719-6.586.449-8.031 2.539z"/>

    <!-- R0C9 -->
    <path id="R0C9_F" fill="#FFF" d="M1177.512 293.531c-13.637 11.145-28.859 23.477-39.16 38.653-16.59 24.441-14.691 43.578-10.574 60.234 4.918 19.898 16.879 59.125 16.879 59.125 1.285 4.496 2.867 5.461 7.363 4.168l67.867-19.555c4.492-1.297 5.492-3.961 4.199-8.457l-38.438-133.48c-1.296-4.492-6.027-2.41-8.136-.688z"/>
    <path id="R0C9_S" fill="none" stroke="#000" stroke-width=".8" stroke-linecap="round" d="M1177.512 293.531c-13.637 11.145-28.859 23.477-39.16 38.653-16.59 24.441-14.691 43.578-10.574 60.234 4.918 19.898 16.879 59.125 16.879 59.125 1.285 4.496 2.867 5.461 7.363 4.168l67.867-19.555c4.492-1.297 5.492-3.961 4.199-8.457l-38.438-133.48c-1.296-4.492-6.027-2.41-8.136-.688z"/>

    <!-- R0C15 -->
    <path id="R0C15_F" fill="#FFF" d="M1723.379 153.957c14.824 1.016 34.711 2.344 47.16 5.629 22.887 6.031 31.391 19.113 35.234 31.187l18.93 59.469c1.418 4.453.559 5.805-4.031 6.703l-74.168 14.532c-4.59.898-5.535-.766-6.43-5.356l-20.855-107.16c-.895-4.586 1.445-5.188 4.16-5.004z"/>
    <path id="R0C15_S" fill="none" stroke="#000" stroke-width=".8" stroke-linecap="round" d="M1723.379 153.957c14.824 1.016 34.711 2.344 47.16 5.629 22.887 6.031 31.391 19.113 35.234 31.187l18.93 59.469c1.418 4.453.559 5.805-4.031 6.703l-74.168 14.532c-4.59.898-5.535-.766-6.43-5.356l-20.855-107.16c-.895-4.586 1.445-5.188 4.16-5.004z"/>
    <!-- <circle fill="#FFF" cx="731.359" cy="729.879" r="4"/> -->
    <!-- <circle fill="#FFF" cx="1316.652" cy="729.879" r="4"/> -->
    <!-- <circle fill="#FFF" cx="1394.551" cy="441.34" r="4"/> -->
    <!-- <circle fill="#FFF" cx="1710.469" cy="432.754" r="4"/> -->
    <!-- <circle fill="#FFF" cx="653.457" cy="441.34" r="4"/> -->
    <!-- <circle fill="#FFF" cx="337.539" cy="432.754" r="4"/> -->
</svg>
